<svg width="82" height="37" viewBox="0 0 82 37" fill="none" xmlns="http://www.w3.org/2000/svg">
<g clip-path="url(#clip0_2_2175)">
<mask id="mask0_2_2175" style="mask-type:luminance" maskUnits="userSpaceOnUse" x="0" y="1" width="81" height="36">
<path d="M0.515259 1.0354H80.5153V36.0714H0.515259V1.0354Z" fill="white"/>
</mask>
<g mask="url(#mask0_2_2175)">
<path d="M47.4723 31.3804V26.8534C47.3593 26.9774 47.2763 27.0474 47.2183 27.1334C46.3853 28.3564 45.4283 29.4534 44.1573 30.2454C43.4054 30.7177 42.5678 31.0372 41.6923 31.1854C41.3943 31.2354 40.7143 31.2774 40.4073 31.2724C39.5333 31.2574 39.0163 31.2794 38.1573 31.0274C36.1403 30.4374 34.6553 29.1944 33.6793 27.3444C32.9363 25.9374 32.6073 24.4244 32.5163 22.8434C32.4143 21.0434 32.6013 19.2864 33.2403 17.5944C34.1353 15.2274 35.7053 13.4644 37.9813 12.3224C39.5793 11.5214 41.2703 11.1344 43.0403 11.0304C44.2853 10.9564 45.5163 11.0414 46.7293 11.3544C46.8663 11.3884 47.0033 11.4324 47.1693 11.4804C47.1693 11.3254 47.1763 11.1974 47.1693 11.0674C47.1163 10.0834 47.0813 9.10035 46.9963 8.11835C46.8503 6.42235 45.8663 5.29535 44.4423 4.48535C44.3573 4.43835 44.2743 4.38835 44.1133 4.29235L52.4613 1.92735C52.4613 2.24935 52.4683 2.53335 52.4613 2.81635C52.4263 4.09035 52.3653 5.36535 52.3523 6.64035C52.3133 10.7374 52.2653 14.8324 52.2743 18.9304C52.2783 21.0004 52.3853 23.0694 52.4783 25.1384C52.5203 26.0394 52.6503 26.9364 52.9573 27.7964C53.3023 28.7664 53.9023 29.4594 55.0393 30.1544C52.5553 30.5384 49.9003 31.0034 47.4743 31.3774M47.2653 19.5294C47.2653 17.7294 47.2633 15.9314 47.2703 14.1314C47.2703 13.9444 47.2093 13.8554 47.0463 13.7554C46.3063 13.3014 45.4983 13.0654 44.6533 12.9304C43.4733 12.7414 42.3423 12.8784 41.3033 13.4974C39.9743 14.2874 39.2013 15.5074 38.7243 16.9374C38.1703 18.6004 38.0483 20.3134 38.1903 22.0504C38.2643 22.9624 38.4333 23.8594 38.7833 24.7104C39.4963 26.4404 40.7923 27.3944 42.6503 27.5944C44.2113 27.7644 45.6873 27.4184 47.1293 26.8584C47.3193 26.7844 47.3493 26.6544 47.3393 26.4734C47.3093 25.6534 47.2723 24.8304 47.2653 24.0074C47.2553 22.5154 47.2633 21.0234 47.2613 19.5314L47.2653 19.5294ZM0.518284 26.6034C0.570284 25.1204 1.36628 24.0934 1.67828 23.7344C2.58528 22.6964 3.78528 22.1344 5.06828 21.7304C7.03528 21.1114 9.05728 20.9604 11.1043 21.1114C11.3673 21.1314 11.4543 21.0554 11.4613 20.7904C11.4783 19.9674 11.5613 19.1444 11.5443 18.3234C11.5173 17.0534 11.0303 16.0024 9.89628 15.3314C9.29428 14.9754 8.62228 14.8254 7.93328 14.7604C5.83128 14.5664 3.90928 15.1604 2.06828 16.1064C2.02228 16.1304 1.97428 16.1524 1.86128 16.2084C1.90728 16.0654 1.92928 15.9764 1.96128 15.8914C2.73728 13.8824 4.13128 12.4624 6.12028 11.6714C8.45928 10.7414 10.8223 10.7254 13.1333 11.7834C15.1963 12.7274 16.2963 14.4104 16.5263 16.6274C16.6263 17.5914 16.5763 18.5774 16.5093 19.5474C16.3743 21.5544 16.3043 23.5584 16.4373 25.5654C16.5413 27.1724 17.2963 28.3334 18.8393 28.9224C19.0493 29.0024 19.2613 29.0874 19.4693 29.1694L19.7043 29.2674C19.5173 29.4264 19.3673 29.5654 19.2063 29.6884C18.1763 30.4814 17.0243 31.0224 15.7353 31.1784C15.1065 31.2571 14.469 31.2321 13.8483 31.1044C12.7743 30.8744 12.1543 30.0664 11.7783 29.0944C11.5703 28.5534 11.4633 27.9734 11.3043 27.3874C11.2593 27.4524 11.1963 27.5304 11.1503 27.6154C10.1613 29.4084 8.71128 30.6784 6.70028 31.1004C5.51128 31.3504 4.32428 31.3364 3.23528 30.8634C2.82479 30.6863 2.44241 30.4501 2.10028 30.1624C1.46934 29.619 0.997015 28.9152 0.733284 28.1254C0.572848 27.6352 0.499407 27.1208 0.516284 26.6054L0.518284 26.6034ZM11.3873 24.2144C11.3873 24.2144 11.3973 22.4314 11.4003 21.5284C11.4003 21.3784 11.4003 21.2484 11.1903 21.2874C9.89828 21.5264 8.61328 21.7954 7.45728 22.4494C6.31328 23.0944 5.56128 23.9994 5.62228 25.4064C5.66528 26.4254 6.13928 27.1244 7.08728 27.4694C8.50028 27.9844 9.86528 27.6894 11.2073 27.1724C11.2723 27.1484 11.3353 27.0264 11.3373 26.9484C11.3463 26.0454 11.3893 25.1184 11.3893 24.2144H11.3873ZM27.0603 1.12135C28.6153 1.10635 29.8693 2.81235 29.5803 4.49735C29.3013 6.13035 27.6713 7.50935 26.0133 7.46735C24.8103 7.43735 23.8453 6.94235 23.2833 5.85435C22.7283 4.78235 22.8673 3.72235 23.5153 2.72135C23.9913 1.98535 24.6673 1.50335 25.4853 1.22335C25.7323 1.13835 26.0123 1.14735 26.2953 1.11035M55.7383 13.3434C58.4593 12.5584 61.1513 11.7784 63.8703 10.9944L63.7443 15.2294C63.7843 15.2504 63.8223 15.2724 63.8593 15.2944C63.9113 15.2114 63.9533 15.1224 64.0183 15.0514C65.0963 13.8634 66.2833 12.8034 67.7093 12.0544C69.5893 11.0684 71.5763 10.7104 73.6693 11.2514C74.8963 11.5684 75.8183 12.2934 76.4653 13.3794C77.0913 14.4254 77.3633 15.5804 77.5113 16.7704C77.7053 18.3194 77.6683 19.8734 77.6653 21.4304C77.6633 23.2284 77.6553 25.0284 77.9453 26.8164C78.1943 28.3384 78.8553 29.6044 80.1053 30.5374C80.1743 30.5894 80.2553 30.6314 80.3023 30.7244C76.6053 30.7074 72.9393 30.5464 69.2573 30.7594C69.5503 30.4994 69.8463 30.2394 70.1373 29.9774C70.9203 29.2764 71.6133 28.5094 71.9723 27.4954C72.2683 26.6554 72.4293 25.7804 72.4653 24.8944C72.5183 23.5844 72.5403 22.2734 72.5263 20.9614C72.521 19.8755 72.3772 18.7948 72.0983 17.7454C71.9003 17.0144 71.5853 16.3434 71.0533 15.7804C70.4703 15.1664 69.7403 14.9004 68.9273 14.8184C67.3073 14.6584 65.7373 14.9624 64.1833 15.3744C64.0923 15.3984 63.9903 15.5304 63.9683 15.6284C63.9273 15.8114 63.9353 16.0064 63.9353 16.1954C63.9353 18.0414 63.9203 19.8864 63.9403 21.7324C63.9533 23.1074 63.9943 24.4794 64.0503 25.8524C64.0833 26.6294 64.2163 27.3954 64.5033 28.1274C64.8903 29.1084 65.6243 29.7974 66.4443 30.4144C66.5873 30.5224 66.7373 30.6224 66.8813 30.7594C63.2645 30.611 59.6428 30.6253 56.0273 30.8024C56.1813 30.6574 56.2793 30.5684 56.3703 30.4744C56.7883 30.0474 57.2293 29.6434 57.6123 29.1844C58.3523 28.2964 58.6683 27.2154 58.7143 26.0944C58.7923 24.1904 58.7903 22.2814 58.7923 20.3754C58.7923 19.5634 58.7403 18.7494 58.6773 17.9394C58.5493 16.2864 57.8773 14.9164 56.5103 13.9264C56.2553 13.7434 56.0123 13.5464 55.7463 13.3404L55.7383 13.3444V13.3434ZM31.4753 30.7574H20.1983C20.3133 30.6574 20.3883 30.5894 20.4673 30.5224C21.3193 29.8034 22.0743 29.0044 22.4713 27.9364C22.7613 27.1564 22.8803 26.3384 22.9013 25.5164C22.9473 23.7824 22.9713 22.0474 22.9563 20.3124C22.9463 19.0854 22.8893 17.8564 22.5503 16.6604C22.2843 15.7324 21.7673 14.9794 21.0543 14.3504C20.6763 14.0154 20.2873 13.6914 19.8823 13.3444L28.2153 10.9904C28.2153 11.1334 28.2193 11.2184 28.2153 11.3034C28.1863 11.8264 28.1363 12.3494 28.1303 12.8734C28.1153 14.1024 28.1233 15.3314 28.1153 16.5604C28.1043 17.8264 28.0583 19.0924 28.0693 20.3554C28.0823 21.9454 28.1103 23.5374 28.1913 25.1264C28.2283 25.8514 28.3693 26.5794 28.5303 27.2894C28.7953 28.4614 29.5003 29.3524 30.4673 30.0424C30.8123 30.2904 31.1583 30.5324 31.4773 30.7574H31.4753Z" fill="#121212"/>
</g>
</g>
<defs>
<clipPath id="clip0_2_2175">
<rect width="81" height="36" fill="white" transform="translate(0.0603027 0.553467)"/>
</clipPath>
</defs>
</svg>
