<svg width="122" height="27" viewBox="0 0 122 27" fill="none" xmlns="http://www.w3.org/2000/svg">
<g clip-path="url(#clip0_2_2184)">
<mask id="mask0_2_2184" style="mask-type:luminance" maskUnits="userSpaceOnUse" x="0" y="0" width="121" height="27">
<path d="M0.515259 0.921387H120.515V26.1844H0.515259V0.921387Z" fill="white"/>
</mask>
<g mask="url(#mask0_2_2184)">
<path fill-rule="evenodd" clip-rule="evenodd" d="M72.1982 5.59546H74.0922V9.82746H74.2192C74.6612 9.00646 75.6722 8.24746 77.1242 8.24746C79.3982 8.24746 80.8502 9.95346 80.8502 12.1005V18.6055H78.9562V12.4795C78.9562 11.0275 77.8822 10.0795 76.5562 10.0795C75.1662 10.0795 74.0292 11.1535 74.0292 12.5425V18.6055H72.1352V5.59546H72.1982ZM32.4732 15.3855L30.7052 15.7635C30.9572 17.7215 32.4732 18.8585 34.6842 18.8585C37.0842 18.8585 38.6622 17.5325 38.6622 15.5745C38.6622 13.2065 36.7092 12.8555 35.0552 12.5585C33.8412 12.3405 32.7892 12.1525 32.7892 11.2165C32.7892 10.4585 33.5472 9.95346 34.6202 9.95346C35.7572 9.95346 36.5782 10.5215 36.7682 11.5325L38.4732 11.0275C38.2202 9.25846 36.5782 8.24746 34.7472 8.24746C32.5372 8.24746 31.0202 9.51146 31.0202 11.2165C31.0202 13.4865 32.8332 13.8645 34.4222 14.1955C35.6632 14.4535 36.7682 14.6845 36.7682 15.7635C36.7682 16.5845 36.0732 17.1535 34.7472 17.1535C33.4832 17.1535 32.6622 16.5855 32.4732 15.3855ZM54.0092 8.50046H52.1142V18.6055H54.0092V12.6695C54.0092 11.1535 55.1462 10.0795 56.5352 10.0795C57.7982 10.0795 58.8722 11.0265 58.8722 12.4795V18.6055H60.7672V12.1005C60.7672 9.95346 59.3142 8.24846 57.0402 8.24846C55.5882 8.24846 54.5772 9.00546 54.1352 9.82746H54.0092V8.50046ZM88.1772 8.24846C85.4612 8.24846 83.1872 10.3325 83.1872 13.5535C83.1872 16.6485 85.2082 18.8585 88.2402 18.8585C90.4502 18.8585 92.2192 17.7215 92.8502 15.7005L91.0192 15.2585C90.7032 16.5215 89.5032 17.2165 88.2392 17.2165C86.3452 17.2165 85.1452 16.0165 85.1452 14.0585H93.0402V13.4265C93.0402 10.4585 91.2712 8.24846 88.1772 8.24846ZM88.1772 9.95346C89.6922 9.95346 90.9562 10.9005 91.0822 12.6055H85.2082C85.3352 11.0905 86.5982 9.95346 88.1772 9.95346ZM94.9362 15.7635L96.7042 15.3845C96.8942 16.5845 97.7142 17.1535 98.9782 17.1535C100.304 17.1535 100.999 16.5845 100.999 15.7635C100.999 14.6835 99.8942 14.4535 98.6542 14.1955C97.0642 13.8645 95.2512 13.4865 95.2512 11.2165C95.2512 9.51146 96.7672 8.24846 98.9782 8.24846C100.809 8.24846 102.451 9.25846 102.704 11.0265L100.999 11.5325C100.809 10.5225 99.9892 9.95246 98.8512 9.95246C97.7782 9.95246 97.0202 10.4585 97.0202 11.2165C97.0202 12.1525 98.0722 12.3405 99.2862 12.5585C100.94 12.8555 102.894 13.2065 102.894 15.5745C102.894 17.5325 101.315 18.8585 98.9142 18.8585C96.7042 18.8585 95.1882 17.7215 94.9362 15.7635ZM114.199 8.24846C111.42 8.24846 109.462 10.5215 109.462 13.5535C109.462 16.6485 111.546 18.8585 114.262 18.8585C116.253 18.8585 117.079 17.7555 117.466 17.2395L117.483 17.2165H117.609C117.609 18.1005 118.241 18.6065 119.062 18.6065H120.451V16.8375H120.009C119.694 16.8375 119.504 16.7115 119.504 16.3955V8.50046H117.609V9.95346H117.483C117.104 9.38446 116.157 8.24846 114.199 8.24846ZM114.578 10.0165C116.283 10.0165 117.736 11.2795 117.736 13.5535C117.736 15.5115 116.472 17.0905 114.578 17.0905C112.809 17.0905 111.42 15.7005 111.42 13.5535C111.42 11.4695 112.746 10.0165 114.578 10.0165ZM105.482 9.06946V18.6055H107.377V8.24846L105.482 9.06946ZM48.0102 8.50046H50.0942L45.9262 19.5535C45.3572 20.9435 44.3462 21.5115 42.7682 21.5115H40.9362V19.7425H42.7682C43.5882 19.7425 43.9682 19.3635 44.2842 18.6695V18.6055H43.7782L40.1782 8.50046H42.2622L45.0422 16.7745H45.1682L48.0102 8.50046ZM107.441 5.59546H105.547V7.49046H107.441V5.59546ZM69.6102 8.50046V10.1435H66.7042V15.5755C66.7042 16.5225 67.0842 16.9015 67.9682 16.9015H69.5472V18.6065H67.9052C66.0102 18.6065 64.7472 17.7225 64.7472 15.6385V10.1435H62.9152V8.50046H64.8732V6.35346L66.6412 5.59546V8.50046H69.6102Z" fill="#121212"/>
<mask id="mask1_2_2184" style="mask-type:luminance" maskUnits="userSpaceOnUse" x="0" y="0" width="26" height="27">
<path d="M25.7783 0.921387H0.515259V26.1854H25.7783V0.921387Z" fill="white"/>
</mask>
<g mask="url(#mask1_2_2184)">
<path d="M5.60421 7.83439C5.22721 7.83439 4.78721 7.70939 4.53621 7.39439C4.22221 7.14339 4.09621 6.76639 4.03321 6.32639C3.97021 5.88639 4.15921 5.50939 4.41021 5.19539C4.53821 5.03554 4.70109 4.90711 4.88638 4.81992C5.07167 4.73274 5.27446 4.68911 5.47921 4.69239C7.99221 4.44139 10.3182 3.24739 12.0772 1.42439C12.2032 1.29839 12.3922 1.17339 12.5802 1.04739C12.7692 0.984387 12.9572 0.921387 13.1462 0.921387C13.3342 0.921387 13.5232 0.921387 13.7742 1.04739C13.9632 1.11039 14.1512 1.23639 14.2772 1.36139C14.4022 1.48739 14.5282 1.67639 14.6542 1.86439C14.7172 2.05339 14.7802 2.24139 14.7802 2.43039C14.7802 2.61839 14.7802 2.80739 14.6542 3.05839C14.5876 3.24701 14.4804 3.41871 14.3402 3.56139C12.0772 5.94939 9.06021 7.45739 5.79321 7.77139C5.73021 7.83439 5.66721 7.83439 5.60421 7.83439Z" fill="url(#paint0_radial_2_2184)"/>
<path d="M20.6883 19.2725C21.0663 19.2725 21.5053 19.3975 21.7573 19.7125C22.0083 20.0265 22.1973 20.3405 22.2603 20.7805C22.2603 21.1575 22.1343 21.5975 21.8833 21.9115C21.7553 22.0713 21.5924 22.1997 21.4071 22.2869C21.2218 22.3741 21.0191 22.4177 20.8143 22.4145C18.3003 22.6655 15.9753 23.8595 14.2153 25.6825C14.0903 25.8075 13.9013 25.9335 13.7133 26.0595C13.5243 26.1225 13.3363 26.1855 13.1473 26.1855C12.9593 26.1855 12.7703 26.1855 12.5193 26.0595C12.3307 25.9928 12.159 25.8856 12.0163 25.7455C11.8757 25.5896 11.7495 25.4212 11.6393 25.2425C11.5763 25.0535 11.5133 24.8655 11.5133 24.6765C11.5133 24.4885 11.5133 24.2995 11.6393 24.0485C11.7023 23.8595 11.8273 23.6715 11.9533 23.5455C14.2153 21.1575 17.2323 19.6495 20.5003 19.3355C20.6263 19.2725 20.6883 19.2725 20.6883 19.2725Z" fill="url(#paint1_radial_2_2184)"/>
<path d="M18.8652 6.01241C18.8652 5.63541 18.9902 5.19541 19.3052 4.94341C19.5562 4.62941 19.9332 4.50341 20.3732 4.44141C20.7502 4.44141 21.1902 4.56641 21.5042 4.81841C21.8182 5.06941 22.0072 5.44641 22.0072 5.88641C22.2582 8.40041 23.4522 10.7264 25.2752 12.4854C25.4012 12.6104 25.5262 12.7994 25.6522 12.9874C25.7152 13.1764 25.7782 13.3654 25.7782 13.5534C25.7782 13.7424 25.7782 13.9304 25.6522 14.1824C25.5855 14.3707 25.4783 14.542 25.3382 14.6844C25.1825 14.8253 25.0142 14.9515 24.8352 15.0614C24.6462 15.1244 24.4582 15.1874 24.2692 15.1874C24.0812 15.1874 23.8922 15.1874 23.6412 15.0614C23.4527 14.9947 23.281 14.8875 23.1382 14.7474C20.7502 12.4854 19.2422 9.46841 18.9282 6.20041C18.8652 6.13741 18.8652 6.07541 18.8652 6.01241Z" fill="url(#paint2_radial_2_2184)"/>
<path d="M7.42826 21.0944C7.42826 21.4714 7.30226 21.9114 6.98826 22.1634C6.73726 22.4774 6.36026 22.6034 5.92026 22.6654C5.54326 22.6654 5.10326 22.5404 4.78926 22.2884C4.6296 22.1605 4.50129 21.9978 4.41412 21.8127C4.32694 21.6276 4.28321 21.425 4.28626 21.2204C4.03426 18.7064 2.84026 16.3804 1.01826 14.6214C0.892259 14.4964 0.766259 14.3074 0.641259 14.1194C0.578259 13.9304 0.515259 13.7414 0.515259 13.5534C0.515259 13.3644 0.515259 13.1764 0.641259 12.9244C0.704259 12.7364 0.829259 12.5474 0.955259 12.4224C1.08126 12.2964 1.26926 12.1704 1.45826 12.0454C1.64626 11.9824 1.83526 11.9194 2.02326 11.9194C2.21226 11.9194 2.40026 11.9194 2.65226 12.0454C2.84026 12.1084 3.02926 12.2334 3.15526 12.3594C5.54326 14.6214 7.05126 17.6384 7.36526 20.9064C7.39909 20.964 7.42054 21.0281 7.42826 21.0944Z" fill="url(#paint3_radial_2_2184)"/>
<path d="M11.8903 4.18946C11.5773 3.93846 11.4513 3.49846 11.3883 3.12146C11.3883 2.74446 11.5143 2.30446 11.7653 2.05346C11.8933 1.89362 12.0562 1.76519 12.2415 1.678C12.4268 1.59081 12.6296 1.54719 12.8343 1.55046C13.2743 1.55046 13.6513 1.67646 13.9643 1.92746C15.9133 3.49846 18.4273 4.37746 20.9413 4.31546C21.1293 4.31546 21.3183 4.31546 21.5693 4.44146C21.7583 4.50346 21.9463 4.62946 22.0723 4.75546C22.1973 4.88146 22.3233 5.06946 22.4493 5.25846C22.5123 5.44646 22.5753 5.63546 22.5753 5.82346C22.5753 6.01247 22.5753 6.20047 22.4493 6.45247C22.3825 6.64072 22.2754 6.81206 22.1353 6.95446C21.9794 7.09512 21.8111 7.22131 21.6323 7.33146C21.4433 7.39446 21.2553 7.45746 21.0663 7.45746C17.7983 7.52046 14.5933 6.45246 12.0793 4.37746L11.8913 4.18946H11.8903Z" fill="url(#paint4_radial_2_2184)"/>
<path d="M14.4643 22.9804C14.7793 23.2304 14.9043 23.6704 14.9672 24.0484C14.9672 24.4254 14.8413 24.8654 14.5903 25.1164C14.4624 25.2761 14.2996 25.4044 14.1145 25.4916C13.9294 25.5788 13.7268 25.6225 13.5223 25.6194C13.1453 25.6194 12.7053 25.4934 12.3913 25.2424C10.4423 23.6714 7.92825 22.7914 5.41525 22.8544C5.22625 22.8544 5.03825 22.8544 4.78625 22.7284C4.59764 22.6617 4.42594 22.5545 4.28325 22.4144C4.15825 22.2884 4.03325 22.1004 3.90625 21.9114C3.84425 21.7234 3.78125 21.5344 3.78125 21.3464C3.78125 21.1574 3.78125 20.9694 3.90625 20.7174C3.96925 20.5294 4.09525 20.3404 4.22125 20.2144C4.34625 20.0894 4.53525 19.9634 4.72325 19.8374C4.91225 19.7744 5.10025 19.7124 5.28925 19.7124C8.55725 19.6494 11.7622 20.7174 14.2762 22.7914L14.4643 22.9804Z" fill="url(#paint5_radial_2_2184)"/>
<path d="M22.5752 12.2964C22.8262 11.9824 23.2662 11.8564 23.6432 11.7944C24.0202 11.7944 24.4602 11.9194 24.7112 12.1714C25.0262 12.4214 25.2142 12.7994 25.2142 13.2394C25.2142 13.6164 25.0892 14.0564 24.8372 14.3704C23.2662 16.3184 22.3872 18.8324 22.4492 21.3464C22.4492 21.5344 22.4492 21.7234 22.3232 21.9744C22.2566 22.163 22.1494 22.3347 22.0092 22.4774C21.8832 22.6034 21.6952 22.7284 21.5062 22.8544C21.3182 22.9174 21.1292 22.9804 20.9412 22.9804C20.7522 22.9804 20.5642 22.9804 20.3122 22.8544C20.124 22.7876 19.9526 22.6805 19.8102 22.5404C19.6693 22.3845 19.5428 22.2162 19.4322 22.0374C19.3702 21.8484 19.3072 21.6604 19.3072 21.4714C19.2442 18.2044 20.3122 14.9984 22.3872 12.4854C22.5122 12.3594 22.5122 12.2964 22.5752 12.2964Z" fill="url(#paint6_radial_2_2184)"/>
<path d="M3.78331 14.8735C3.53331 15.1875 3.09331 15.3135 2.71531 15.3755C2.33831 15.3755 1.89831 15.2505 1.64731 14.9985C1.48766 14.8705 1.35935 14.7078 1.27217 14.5227C1.185 14.3376 1.14127 14.135 1.14431 13.9305C1.14431 13.5535 1.27031 13.1135 1.52131 12.7995C3.09231 10.8515 3.97231 8.33745 3.90931 5.82345C3.90931 5.63545 3.90931 5.44645 4.03531 5.19545C4.09831 5.00645 4.22331 4.81845 4.34931 4.69245C4.47531 4.56645 4.66331 4.44145 4.85231 4.31545C5.04031 4.25245 5.22931 4.18945 5.41731 4.18945C5.60631 4.18945 5.79531 4.18945 6.04631 4.31545C6.23431 4.37845 6.42331 4.50345 6.54931 4.62945C6.67431 4.75545 6.80031 4.94345 6.92631 5.13245C6.98931 5.32045 7.05131 5.50945 7.05131 5.69745C7.11431 8.96545 6.04631 12.1705 3.97231 14.6845C3.84631 14.7475 3.78331 14.8105 3.78331 14.8735Z" fill="url(#paint7_radial_2_2184)"/>
</g>
</g>
</g>
<defs>
<radialGradient id="paint0_radial_2_2184" cx="0" cy="0" r="1" gradientUnits="userSpaceOnUse" gradientTransform="translate(13.2502 2.49539) scale(9.771 9.76925)">
<stop offset="0.15"/>
<stop offset="1" stop-opacity="0.1"/>
</radialGradient>
<radialGradient id="paint1_radial_2_2184" cx="0" cy="0" r="1" gradientUnits="userSpaceOnUse" gradientTransform="translate(13.0703 24.6345) rotate(180) scale(9.771 9.76925)">
<stop offset="0.15"/>
<stop offset="1" stop-opacity="0.1"/>
</radialGradient>
<radialGradient id="paint2_radial_2_2184" cx="0" cy="0" r="1" gradientUnits="userSpaceOnUse" gradientTransform="translate(24.2302 13.6554) rotate(90) scale(9.76925 9.771)">
<stop offset="0.15"/>
<stop offset="1" stop-opacity="0.1"/>
</radialGradient>
<radialGradient id="paint3_radial_2_2184" cx="0" cy="0" r="1" gradientUnits="userSpaceOnUse" gradientTransform="translate(2.08926 13.4734) rotate(-90) scale(9.76925 9.771)">
<stop offset="0.15"/>
<stop offset="1" stop-opacity="0.1"/>
</radialGradient>
<radialGradient id="paint4_radial_2_2184" cx="0" cy="0" r="1" gradientUnits="userSpaceOnUse" gradientTransform="translate(21.0494 5.80302) rotate(44.995) scale(9.77015)">
<stop offset="0.15"/>
<stop offset="1" stop-opacity="0.1"/>
</radialGradient>
<radialGradient id="paint5_radial_2_2184" cx="0" cy="0" r="1" gradientUnits="userSpaceOnUse" gradientTransform="translate(5.27993 21.3291) rotate(-135.006) scale(9.77015)">
<stop offset="0.15"/>
<stop offset="1" stop-opacity="0.1"/>
</radialGradient>
<radialGradient id="paint6_radial_2_2184" cx="0" cy="0" r="1" gradientUnits="userSpaceOnUse" gradientTransform="translate(20.9208 21.47) rotate(135.006) scale(9.77015)">
<stop offset="0.15"/>
<stop offset="1" stop-opacity="0.1"/>
</radialGradient>
<radialGradient id="paint7_radial_2_2184" cx="0" cy="0" r="1" gradientUnits="userSpaceOnUse" gradientTransform="translate(5.4004 5.66915) rotate(-44.995) scale(9.77015)">
<stop offset="0.15"/>
<stop offset="1" stop-opacity="0.1"/>
</radialGradient>
<clipPath id="clip0_2_2184">
<rect width="121" height="26" fill="white" transform="translate(0.0603027 0.553467)"/>
</clipPath>
</defs>
</svg>
