<svg width="122" height="23" viewBox="0 0 122 23" fill="none" xmlns="http://www.w3.org/2000/svg">
<g clip-path="url(#clip0_2_2214)">
<mask id="mask0_2_2214" style="mask-type:luminance" maskUnits="userSpaceOnUse" x="0" y="0" width="121" height="23">
<path d="M0.515259 0.770508H120.515V22.3355H0.515259V0.770508Z" fill="white"/>
</mask>
<g mask="url(#mask0_2_2214)">
<path d="M15.0283 18.7896C15.2283 17.6546 14.8003 16.4906 13.9143 15.6966C13.2618 15.1137 12.4182 14.7907 11.5433 14.7886C11.0284 14.7908 10.52 14.6745 10.0573 14.4486C9.46725 14.1411 8.98046 13.6672 8.6573 13.0856C8.83006 12.6228 8.91714 12.1325 8.9143 11.6386C8.9143 13.0576 10.0853 14.1926 11.5143 14.1926H11.5713C13.0003 14.1646 14.1143 13.0296 14.1143 11.6386C14.1143 11.1286 14.2003 10.6456 14.3713 10.1916C14.6596 9.46756 15.1445 8.83856 15.7713 8.37556C16.5513 7.81233 17.4957 7.52296 18.4573 7.55256C17.7713 6.44556 16.8283 5.48156 15.6573 4.82856V5.02756C15.6577 5.91007 15.3662 6.76795 14.8283 7.46756C14.6706 7.33489 14.4981 7.22081 14.3143 7.12756C14.7843 6.53998 15.0365 5.80793 15.0283 5.05556C15.0283 4.60156 14.9433 4.17556 14.7713 3.75056C14.5031 3.12865 14.0614 2.59719 13.499 2.21979C12.9367 1.84239 12.2774 1.63504 11.6003 1.62256H11.4283C10.5599 1.62018 9.69519 1.73454 8.8573 1.96256C5.3143 2.89856 2.5433 5.59456 1.6003 9.05656C1.0003 9.76656 0.628296 10.6456 0.628296 11.5536C0.686296 5.76356 5.4853 1.05356 11.4283 0.997559H11.7143C17.6283 1.08356 22.4003 5.76456 22.4573 11.5536V11.7806C22.4297 12.6996 22.0869 13.5813 21.4863 14.2776C20.91 14.9407 20.1408 15.4071 19.2863 15.6116C18.9685 15.6911 18.6418 15.7291 18.3143 15.7246C17.4185 15.7261 16.5463 15.4373 15.8283 14.9016C15.5713 15.2416 15.2573 15.5256 14.9143 15.8096C15.4863 16.5476 15.8003 17.5126 15.7433 18.4496C16.887 17.7859 17.8489 16.8498 18.5433 15.7246C18.8003 15.6966 19.0573 15.6676 19.3143 15.6116C18.4718 17.1528 17.1883 18.4074 15.6283 19.2146C14.3794 19.8463 12.9999 20.1768 11.6003 20.1796C11.3 20.1805 11.0032 20.1148 10.7314 19.9871C10.4596 19.8595 10.2194 19.6732 10.0283 19.4416C9.7713 19.1016 9.6283 18.7036 9.6283 18.2786C9.6283 17.7106 9.9143 17.1716 10.3143 16.8026C10.7143 16.8876 11.1433 16.9446 11.6003 16.9446C10.8573 16.9446 10.2283 17.5406 10.2283 18.2786C10.2283 19.0166 10.8283 19.6116 11.6003 19.6116H11.6283C12.3713 19.6116 13.0003 19.0166 13.0003 18.2786C13.0003 17.5406 12.4003 16.9446 11.6283 16.9446C10.6283 16.9446 9.6573 16.6616 8.8003 16.1786C8.6283 16.0656 8.4283 15.9516 8.2863 15.8386C7.93818 15.5731 7.62177 15.2684 7.3433 14.9306C7.5143 14.8166 7.6573 14.6746 7.8283 14.5326C8.2003 15.0156 8.6863 15.4406 9.2573 15.7526C9.98235 16.1573 10.7979 16.3723 11.6283 16.3776C12.1143 16.3776 12.5713 16.5476 12.9143 16.8316C13.3433 17.1716 13.6003 17.7116 13.6003 18.3066C13.6003 18.7326 13.4573 19.1296 13.2003 19.4706C13.8506 19.3353 14.4831 19.1256 15.0853 18.8456L15.0283 18.7896ZM19.4853 10.1346C19.3627 9.48442 19.1514 8.8542 18.8573 8.26156C17.8863 8.12056 16.9143 8.34756 16.1713 8.91456C15.7385 9.23136 15.3863 9.64551 15.1431 10.1236C14.8999 10.6016 14.7725 11.1302 14.7713 11.6666C14.7713 12.1776 14.6573 12.6606 14.4003 13.1146C14.1143 13.6816 13.6003 14.1646 13.0283 14.4766C13.558 14.6727 14.0437 14.9718 14.4573 15.3566C14.9462 14.9805 15.3627 14.5187 15.6863 13.9936C16.1057 13.2904 16.323 12.4852 16.3143 11.6666C16.3143 11.1846 16.4853 10.7586 16.8003 10.4186C17.1292 10.0404 17.5891 9.80089 18.0874 9.7482C18.5858 9.6955 19.0856 9.83355 19.4863 10.1346H19.4853ZM19.6283 11.6106C19.6003 10.9296 19.0003 10.3616 18.2573 10.3336C17.4863 10.3336 16.8863 10.9296 16.8863 11.6386V11.6666C16.9143 12.3766 17.5143 12.9436 18.2563 12.9436C19.0283 12.9436 19.6283 12.3476 19.6283 11.6386V11.6106ZM16.8003 12.9156C16.6573 13.4256 16.4573 13.9656 16.1713 14.4196C16.9433 14.9866 17.9143 15.2426 18.8573 15.0716C19.1143 15.0436 19.3713 14.9586 19.6283 14.8736C20.9143 14.3636 21.8003 13.1426 21.8283 11.7806V11.6106C21.8283 10.7586 21.7143 9.90756 21.4573 9.08456C20.5143 5.65156 17.7433 2.92756 14.2283 1.99056C14.8945 2.54152 15.3738 3.28524 15.6003 4.11956V4.14756C17.4115 5.07606 18.8377 6.61304 19.6283 8.48856C20.0573 9.48256 20.2573 10.5606 20.2573 11.6956C20.2587 11.9936 20.1896 12.2878 20.0556 12.554C19.9216 12.8203 19.7265 13.0511 19.4863 13.2276C19.1388 13.4843 18.7184 13.6234 18.2863 13.6246C18.0038 13.6116 17.7268 13.5422 17.4715 13.4204C17.2163 13.2987 16.9881 13.127 16.8003 12.9156ZM11.3713 22.3356C5.4573 22.2516 0.686296 17.5696 0.628296 11.7816V11.5536C0.656157 10.6343 0.999356 9.75269 1.6003 9.05656C2.1713 8.40356 2.9433 7.94956 3.8003 7.72256C4.1143 7.63756 4.4573 7.60956 4.7713 7.60956C5.6573 7.60956 6.5433 7.89356 7.2573 8.43256C7.5143 8.09256 7.8283 7.80756 8.1713 7.52456C7.58941 6.7714 7.29576 5.83513 7.3433 4.88456C6.19964 5.54825 5.23778 6.48434 4.5433 7.60956C4.28411 7.63329 4.02641 7.67101 3.7713 7.72256C4.61379 6.18132 5.89728 4.92674 7.4573 4.11956C8.70619 3.48778 10.0857 3.15728 11.4853 3.15456C12.1153 3.15456 12.6853 3.43856 13.0573 3.89256C13.3143 4.23256 13.4573 4.62956 13.4573 5.05556C13.4573 5.65156 13.1713 6.16256 12.7713 6.53156C12.3486 6.44072 11.9177 6.39314 11.4853 6.38956C12.2283 6.38956 12.8573 5.79356 12.8573 5.05556C12.8573 4.31756 12.2573 3.72156 11.4853 3.72156H11.4573C10.7143 3.72156 10.0853 4.31756 10.0853 5.05556C10.0853 5.79356 10.6853 6.38956 11.4573 6.38956C12.4573 6.38956 13.4283 6.67256 14.2863 7.15556C14.4563 7.26856 14.6563 7.38256 14.8003 7.49556C15.1433 7.77956 15.4573 8.06356 15.7433 8.40356C15.5713 8.51756 15.4283 8.65956 15.2573 8.80156C14.8703 8.30058 14.3838 7.88519 13.8283 7.58156C13.1032 7.17679 12.2877 6.9618 11.4573 6.95656C10.9907 6.94879 10.5393 6.78944 10.1713 6.50256C9.95786 6.32027 9.78614 6.09421 9.66778 5.83971C9.54941 5.58521 9.48718 5.30823 9.4853 5.02756C9.4853 4.57356 9.6573 4.17556 9.8853 3.86356C9.22571 3.99836 8.58359 4.2077 7.9713 4.48756C7.7713 5.62356 8.2003 6.78656 9.0853 7.58056C9.73802 8.1636 10.5821 8.48671 11.4573 8.48856C11.9713 8.48856 12.4853 8.60256 12.9433 8.82856C13.5433 9.14156 14.0283 9.62356 14.3433 10.1916C14.1713 10.6456 14.0573 11.1276 14.0853 11.6386C14.0853 10.2196 12.9153 9.08456 11.4853 9.08456H11.4573C10.0283 9.11356 8.9143 10.2486 8.9143 11.6386C8.9143 12.1486 8.8283 12.6316 8.6573 13.0856C8.36903 13.8096 7.88412 14.4386 7.2573 14.9016C6.47735 15.4649 5.53293 15.7542 4.5713 15.7246C5.2573 16.8316 6.2003 17.7966 7.3713 18.4486C7.3433 17.5126 7.6003 16.5756 8.2003 15.8386C8.3713 15.9806 8.5433 16.0936 8.7143 16.1786C8.24432 16.7661 7.99205 17.4982 8.0003 18.2506C8.0003 18.7046 8.0853 19.1306 8.2573 19.5556C8.52547 20.1775 8.96718 20.7089 9.52956 21.0863C10.0919 21.4637 10.7511 21.6711 11.4283 21.6836H11.6003C12.4686 21.6856 13.3333 21.5712 14.1713 21.3436C17.7143 20.4066 20.4853 17.7106 21.4283 14.2496C22.0283 13.5396 22.4003 12.6596 22.4003 11.7526C22.3433 17.5406 17.5433 22.2506 11.6003 22.3076H11.4863L11.3713 22.3366V22.3356ZM8.8283 21.3716C8.16263 20.8207 7.68373 20.0774 7.4573 19.2436V19.2146C5.6457 18.2862 4.21916 16.7492 3.4283 14.8736C3.00659 13.8573 2.79305 12.7668 2.8003 11.6666C2.8003 11.0426 3.0853 10.5036 3.5713 10.1346C3.91666 9.87368 4.33849 9.73412 4.7713 9.73756C5.3713 9.73756 5.9143 10.0216 6.2573 10.4176C6.38957 9.88773 6.60131 9.38099 6.8853 8.91456C6.1153 8.34756 5.1433 8.09156 4.2003 8.26156C3.9143 8.29056 3.6863 8.37556 3.4283 8.46056C2.1433 8.97056 1.2573 10.1906 1.2283 11.5536V11.7236C1.2283 12.5746 1.3433 13.4266 1.6003 14.2496C2.08336 15.9619 3.00382 17.519 4.27115 18.7677C5.53847 20.0165 7.10901 20.9138 8.8283 21.3716ZM4.2283 15.0716C5.2003 15.2136 6.1713 14.9866 6.9143 14.4196C7.34724 14.1027 7.69956 13.6883 7.94276 13.2101C8.18597 12.7318 8.31324 12.2031 8.3143 11.6666C8.3143 11.1566 8.4283 10.6736 8.6863 10.2196C8.9713 9.65256 9.4863 9.16956 10.0563 8.85756H10.0283C9.49922 8.66065 9.01402 8.36164 8.6003 7.97756C8.11092 8.35381 7.69412 8.81602 7.3703 9.34156C6.95106 10.0444 6.73377 10.8492 6.7423 11.6676C6.7423 12.1506 6.5703 12.5766 6.2563 12.9166C5.92743 13.2947 5.46753 13.5342 4.96916 13.5869C4.4708 13.6396 3.97097 13.5016 3.5703 13.2006C3.7133 13.8526 3.9423 14.4776 4.2273 15.0726L4.2283 15.0716ZM3.4573 11.7236C3.4863 12.4046 4.0863 13.0006 4.8283 13.0006C5.6003 13.0006 6.2003 12.4046 6.2003 11.6956V11.6666C6.1713 10.9576 5.5713 10.3906 4.8283 10.3906C4.0573 10.3906 3.4573 10.9856 3.4573 11.7236C3.4573 11.6956 3.4573 11.6956 3.4573 11.7236ZM31.2003 6.07756H34.2003L37.0003 13.4266H37.0283L39.7713 6.07656H42.8003V16.4336H40.9143V8.12056H40.8853L37.6283 16.4336H36.2853L33.0573 8.12056H33.0283V16.4336H31.2003V6.07756ZM48.0283 6.07756H55.1433V7.69356H49.9433V10.3336H54.8853V11.8656H49.9433V14.7886H55.4283V16.4346H48.0283V6.07756ZM63.6003 10.5606C63.8853 10.5606 64.1433 10.5316 64.4283 10.5036C64.6863 10.4756 64.9143 10.3906 65.1713 10.3046C65.4003 10.1916 65.5713 10.0216 65.7143 9.85056C65.8573 9.65256 65.9433 9.39656 65.9433 9.08456C65.9433 8.80156 65.8863 8.57456 65.7433 8.40456C65.6003 8.23356 65.4573 8.06356 65.2573 7.97856C65.0283 7.86456 64.8283 7.77956 64.5713 7.77956C64.3158 7.74434 64.0582 7.7253 63.8003 7.72256H62.0573V10.6456C62.0573 10.5606 63.6003 10.5606 63.6003 10.5606ZM60.1433 6.07756H63.8853C64.3713 6.07756 64.8853 6.13356 65.3713 6.21856C65.8283 6.30456 66.2573 6.50256 66.6283 6.72956C67.0003 6.95656 67.3143 7.29756 67.5143 7.66656C67.7433 8.06356 67.8573 8.51656 67.8573 9.05656C67.8573 9.79456 67.6283 10.4186 67.2003 10.9006C66.7713 11.3836 66.1713 11.6956 65.4003 11.8656L68.2573 16.4626H65.9703L63.4843 12.0646H62.0843V16.4626H60.1703V6.07756H60.1433ZM80.2853 8.51756C80.004 8.15083 79.6293 7.86655 79.2003 7.69456C78.7727 7.52553 78.317 7.43901 77.8573 7.43956C77.3433 7.43956 76.8283 7.52456 76.3433 7.72256C75.9022 7.91699 75.5039 8.19669 75.1713 8.54556C74.8283 8.88556 74.5713 9.28356 74.4003 9.73756C74.2283 10.2196 74.1143 10.7306 74.1433 11.2126C74.1433 11.7806 74.2283 12.2916 74.4003 12.7456C74.5713 13.1996 74.8283 13.6256 75.1433 13.9656C75.4573 14.3056 75.8283 14.5616 76.2853 14.7596C76.7153 14.9586 77.2283 15.0436 77.7713 15.0436C78.3051 15.0522 78.8335 14.9358 79.3143 14.7036C79.7433 14.5046 80.1143 14.1926 80.4003 13.8236L81.9433 14.8736C81.474 15.4475 80.8772 15.904 80.2003 16.2066C79.5143 16.5196 78.7143 16.6896 77.7713 16.6896C76.9826 16.6943 76.1993 16.5599 75.4573 16.2926C74.7836 16.0416 74.1631 15.6661 73.6283 15.1856C73.1143 14.6756 72.7143 14.1076 72.4573 13.4556C72.1673 12.7538 72.0214 12.0009 72.0283 11.2416C72.0283 10.4186 72.1713 9.65156 72.4573 8.99956C72.7295 8.34491 73.1499 7.76232 73.6853 7.29756C74.2187 6.82142 74.8405 6.4548 75.5153 6.21856C76.5941 5.82909 77.7566 5.73147 78.8853 5.93556C79.2573 5.99156 79.6283 6.07756 79.9713 6.21856C80.3143 6.36056 80.6283 6.50256 80.9433 6.70156C81.2283 6.89956 81.5143 7.12656 81.7143 7.38156C81.7433 7.41156 80.2853 8.51756 80.2853 8.51756ZM94.5153 12.6316C94.5153 13.2566 94.4003 13.8236 94.1713 14.3346C93.9713 14.8166 93.6573 15.2706 93.2573 15.6116C92.8573 15.9516 92.4003 16.2356 91.8863 16.4336C91.3353 16.6265 90.7551 16.7226 90.1713 16.7176C89.5879 16.7225 89.008 16.6264 88.4573 16.4336C87.9495 16.2543 87.4829 15.9748 87.0853 15.6116C86.7 15.2498 86.3895 14.8159 86.1713 14.3346C85.9433 13.8236 85.8573 13.2846 85.8573 12.6316V6.07756H87.7713V12.5476C87.7713 12.8586 87.8003 13.1426 87.8863 13.4546C87.9713 13.7386 88.1143 14.0226 88.2863 14.2496C88.4826 14.4973 88.7376 14.6922 89.0283 14.8166C89.3143 14.9586 89.7143 15.0156 90.1713 15.0156C90.6283 15.0156 91.0003 14.9306 91.3143 14.8166C91.6003 14.6746 91.8573 14.4766 92.0573 14.2496C92.2283 14.0226 92.3713 13.7386 92.4573 13.4546C92.5433 13.1706 92.5713 12.8586 92.5713 12.5466V6.07656H94.4863C94.5143 6.07656 94.5153 12.6316 94.5153 12.6316ZM103.114 10.5606C103.4 10.5606 103.657 10.5316 103.943 10.5036C104.228 10.4756 104.457 10.3906 104.686 10.3046C104.914 10.1916 105.086 10.0216 105.228 9.85056C105.371 9.65256 105.457 9.39656 105.457 9.08456C105.457 8.80156 105.4 8.57456 105.257 8.40456C105.138 8.21992 104.97 8.07234 104.771 7.97856C104.543 7.86456 104.343 7.77956 104.086 7.77956C103.83 7.74433 103.573 7.7253 103.314 7.72256H101.571V10.6456C101.543 10.5606 103.114 10.5606 103.114 10.5606ZM99.6283 6.07756H103.371C103.857 6.07756 104.371 6.13356 104.857 6.21856C105.314 6.30456 105.743 6.50256 106.114 6.72956C106.486 6.95656 106.771 7.26956 107 7.66656C107.228 8.06356 107.343 8.51656 107.343 9.05656C107.343 9.79456 107.114 10.4186 106.686 10.9006C106.257 11.3836 105.657 11.6956 104.886 11.8656L107.743 16.4626H105.457L102.971 12.0646H101.571V16.4626H99.6573C99.6283 16.4336 99.6283 6.07756 99.6283 6.07756ZM114.543 11.9506L110.514 6.10556H112.857L115.543 10.4466L118.286 6.10556H120.514L116.486 11.9506V16.4336H114.571V11.9506H114.543Z" fill="#121212"/>
</g>
</g>
<defs>
<clipPath id="clip0_2_2214">
<rect width="121" height="22" fill="white" transform="translate(0.0603027 0.553467)"/>
</clipPath>
</defs>
</svg>
