<svg width="122" height="23" viewBox="0 0 122 23" fill="none" xmlns="http://www.w3.org/2000/svg">
<g clip-path="url(#clip0_2_2223)">
<mask id="mask0_2_2223" style="mask-type:luminance" maskUnits="userSpaceOnUse" x="0" y="0" width="121" height="23">
<path d="M0.515259 0.778564H120.515V22.3276H0.515259V0.778564Z" fill="white"/>
</mask>
<g mask="url(#mask0_2_2223)">
<path d="M9.84632 16.6135L4.52832 11.3615C4.08998 10.9361 3.50316 10.6982 2.89232 10.6982C2.28147 10.6982 1.69465 10.9361 1.25632 11.3615C1.04346 11.5734 0.874555 11.8252 0.759301 12.1025C0.644048 12.3799 0.584717 12.6772 0.584717 12.9775C0.584717 13.2779 0.644048 13.5752 0.759301 13.8525C0.874555 14.1299 1.04346 14.3817 1.25632 14.5935L8.23032 21.4815C8.66631 21.9115 9.25401 22.1525 9.86632 22.1525C10.4786 22.1525 11.0663 21.9115 11.5023 21.4815L14.2883 18.7115L10.9383 15.5365L9.84632 16.6135ZM19.6853 16.6135L18.0493 14.9975L28.2763 4.87754C29.1723 3.99254 29.1923 2.52954 28.2763 1.64454C27.3603 0.759541 25.8993 0.740541 25.0033 1.64454L19.6853 6.89754L14.3473 1.62554C13.909 1.20011 13.3222 0.962158 12.7113 0.962158C12.1005 0.962158 11.5137 1.20011 11.0753 1.62554C10.8625 1.8374 10.6936 2.08922 10.5783 2.36654C10.463 2.64386 10.4037 2.94122 10.4037 3.24154C10.4037 3.54186 10.463 3.83922 10.5783 4.11654C10.6936 4.39386 10.8625 4.64569 11.0753 4.85754L16.3933 10.1105L14.7573 11.7265L9.43832 6.47454C8.99998 6.04911 8.41316 5.81116 7.80232 5.81116C7.19147 5.81116 6.60465 6.04911 6.16632 6.47454C5.95346 6.6864 5.78456 6.93822 5.6693 7.21554C5.55405 7.49286 5.49472 7.79022 5.49472 8.09054C5.49472 8.39086 5.55405 8.68822 5.6693 8.96554C5.78456 9.24286 5.95346 9.49469 6.16632 9.70654L18.0293 21.4435C18.4653 21.8738 19.0533 22.115 19.6658 22.115C20.2784 22.115 20.8663 21.8738 21.3023 21.4435L24.1073 18.6725L20.8153 15.4405L19.6853 16.6135Z" fill="#121212"/>
<path d="M34.8203 11.3415L29.5033 16.5945L27.8663 14.9785L33.1843 9.72551C33.3971 9.51365 33.566 9.26183 33.6813 8.98451C33.7965 8.70718 33.8559 8.40982 33.8559 8.10951C33.8559 7.80919 33.7965 7.51183 33.6813 7.2345C33.566 6.95718 33.3971 6.70536 33.1843 6.49351C32.7459 6.06807 32.1591 5.83012 31.5483 5.83012C30.9374 5.83012 30.3506 6.06807 29.9123 6.49351L24.5933 11.7455L23.4253 10.5915L20.1713 13.8615L27.8663 21.4615C28.3023 21.8917 28.8902 22.133 29.5028 22.133C30.1153 22.133 30.7032 21.8917 31.1393 21.4615L38.1133 14.5745C38.3233 14.3587 38.4882 14.103 38.5982 13.8226C38.7082 13.5423 38.7611 13.2427 38.7538 12.9416C38.7466 12.6405 38.6793 12.3439 38.5559 12.0691C38.4325 11.7943 38.2555 11.547 38.0353 11.3415C37.5996 10.9335 37.0251 10.7065 36.4283 10.7065C35.8314 10.7065 35.2569 10.9335 34.8213 11.3415H34.8203ZM88.7443 17.5565C87.6723 17.5565 86.9523 16.8835 86.9523 15.7285V10.7065H90.4193V8.41651H86.9523V4.60851H84.2243V8.41851H82.0623V10.7085H84.2243V15.7295C84.2243 18.4815 85.8803 19.9625 88.5103 19.9625C89.4075 19.9843 90.2925 19.7509 91.0623 19.2895L90.3423 17.1725C89.8529 17.4396 89.3016 17.5714 88.7443 17.5565ZM120.514 13.9775C120.514 10.8035 118.78 8.20551 115.254 8.20551C111.962 8.20551 109.624 10.7065 109.624 14.1125C109.624 17.5185 111.904 19.9805 115.449 19.9805C117.573 19.9805 119.073 19.2885 120.202 17.9405L118.313 16.4015C117.767 17.1135 116.813 17.7105 115.469 17.7105C113.56 17.7105 112.469 16.7295 112.391 14.9205H120.514V13.9775ZM112.41 12.9775C112.508 11.3995 113.598 10.3415 115.215 10.3415C116.832 10.3415 117.767 11.4185 117.845 12.9775H112.41ZM50.7563 3.22251H47.9123V19.7505H58.3533V17.2485H50.7563V3.22351V3.22251ZM103.918 17.6135C101.892 17.6135 100.781 16.0555 100.781 14.0735C100.781 12.0925 101.853 10.5335 103.898 10.5335C105.164 10.5335 106.022 11.2455 106.547 12.1495L108.535 10.6685C108.047 9.87929 107.36 9.23258 106.543 8.79351C105.725 8.35444 104.807 8.13853 103.879 8.16751C100.353 8.16751 97.9963 10.6495 97.9963 14.0545C97.9963 17.4795 100.372 19.9425 103.898 19.9425C105.807 19.9995 107.599 19.0575 108.593 17.4405L106.625 15.9405C106.06 16.8825 105.164 17.6145 103.918 17.6145V17.6135ZM94.2553 3.12651C93.8226 3.11557 93.403 3.27452 93.0861 3.5693C92.7693 3.86408 92.5805 4.27123 92.5603 4.70351V4.80051C92.5603 5.72351 93.3203 6.47351 94.2553 6.47351C95.1903 6.47351 95.9503 5.72351 95.9503 4.80051C95.9703 3.89551 95.2483 3.16451 94.3523 3.12651H94.2553ZM79.3343 17.5565C78.2623 17.5565 77.5413 16.8835 77.5413 15.7285V10.7065H81.0093V8.41651H77.5403V4.60851H74.8133V8.41851H72.6513V10.7085H74.8133V15.7295C74.8133 18.4815 76.4693 19.9625 79.0993 19.9625C79.9965 19.9843 80.8815 19.7509 81.6513 19.2895L80.9303 17.1725C80.4412 17.4394 79.8902 17.5723 79.3333 17.5575L79.3343 17.5565ZM95.6003 8.41751H92.8723V19.7495H95.6003V8.41751ZM68.0353 9.74451C67.3923 8.89851 66.2433 8.18651 64.5093 8.18651C61.3923 8.18651 59.2693 10.6685 59.2693 14.0735C59.2693 17.4985 61.3923 19.9615 64.5093 19.9615C66.2433 19.9615 67.4123 19.2685 68.0353 18.4025L68.1723 19.7305H70.6263V8.39751H68.1723L68.0353 9.74451ZM67.8993 15.9015C67.2763 16.8635 66.4573 17.5945 65.0943 17.5945C63.3213 17.5945 62.0353 16.2285 62.0353 14.0935C62.0353 11.9575 63.3023 10.5915 65.0943 10.5915C66.4573 10.5915 67.2753 11.3035 67.8993 12.2845V15.9015Z" fill="#121212"/>
</g>
</g>
<defs>
<clipPath id="clip0_2_2223">
<rect width="121" height="22" fill="white" transform="translate(0.0603027 0.553467)"/>
</clipPath>
</defs>
</svg>
