<svg width="82" height="61" viewBox="0 0 82 61" fill="none" xmlns="http://www.w3.org/2000/svg">
<g clip-path="url(#clip0_2_2233)">
<mask id="mask0_2_2233" style="mask-type:luminance" maskUnits="userSpaceOnUse" x="0" y="0" width="81" height="61">
<path d="M0.515381 0.553467H80.5154V60.5535H0.515381V0.553467Z" fill="white"/>
</mask>
<g mask="url(#mask0_2_2233)">
<path fill-rule="evenodd" clip-rule="evenodd" d="M58.9405 11.9394V14.9844C67.0555 13.8124 71.2905 14.4004 71.6405 16.2744C71.9965 19.0844 63.9945 22.4834 62.4665 23.0724C62.3465 23.1884 62.2315 23.0724 62.1145 22.9564L62.1125 22.9544C62.1049 22.891 62.1116 22.8266 62.132 22.7661C62.1524 22.7056 62.1861 22.6503 62.2305 22.6044C66.4645 20.7264 70.8205 18.0274 70.2305 16.6224C69.4065 14.9804 61.2845 15.8004 43.6375 20.1404C22.5755 25.2994 12.4575 24.5964 11.6335 22.0154C10.8095 19.6704 17.3985 16.9734 18.9285 16.3894H19.0455V16.5054C18.8675 16.6004 18.6355 16.7174 18.3685 16.8544C16.3385 17.8864 12.1985 19.9914 12.9315 21.5424C13.2875 22.6024 16.6975 22.8354 22.5795 22.1324V15.4504C22.5704 14.9317 22.7168 14.4221 22.9998 13.9872C23.2828 13.5524 23.6895 13.2122 24.1675 13.0104C24.4848 12.8768 24.8257 12.8079 25.17 12.8078C25.5143 12.8077 25.8552 12.8764 26.1726 13.0097C26.4901 13.1431 26.7777 13.3386 27.0186 13.5846C27.2595 13.8306 27.4488 14.1222 27.5755 14.4424C27.7035 14.7624 27.7655 15.1054 27.7585 15.4504V21.4314C28.9585 21.2614 30.1585 21.0284 31.4485 20.7784C31.9285 20.6844 32.4235 20.5884 32.9345 20.4924V7.71842C32.953 7.04333 33.2338 6.40202 33.7174 5.93059C34.2009 5.45916 34.8492 5.19473 35.5245 5.19342C36.2003 5.19323 36.8493 5.45736 37.3329 5.92938C37.8165 6.40139 38.0963 7.04384 38.1125 7.71942V19.3284L38.1855 19.3114C39.6925 18.9654 41.1995 18.6194 42.8185 18.2724C42.9622 18.191 43.1254 18.1505 43.2905 18.1554V3.14142C43.2988 2.45856 43.5745 1.80617 44.0583 1.32421C44.5422 0.842254 45.1956 0.569125 45.8785 0.563419H45.8915C46.4128 0.551606 46.9259 0.69503 47.3655 0.975469C47.8051 1.25591 48.1515 1.6607 48.3605 2.13842C48.5005 2.45542 48.5755 2.79642 48.5835 3.14242V16.8624L48.6435 16.8514C50.3895 16.5024 52.1325 16.1544 53.6425 15.8074V11.9394C53.6433 11.2366 53.9226 10.5627 54.4194 10.0654C54.9161 9.56812 55.5896 9.28801 56.2925 9.28642C56.6408 9.28615 56.9858 9.35462 57.3076 9.48789C57.6294 9.62116 57.9218 9.81661 58.168 10.0631C58.4141 10.3095 58.6093 10.6021 58.7422 10.9241C58.8751 11.2461 58.9432 11.5911 58.9425 11.9394H58.9405ZM22.6065 27.3274V29.2934C22.6196 29.9648 22.8951 30.6043 23.374 31.0749C23.8528 31.5456 24.497 31.81 25.1685 31.8114C25.8404 31.8118 26.4855 31.5479 26.9646 31.0769C27.4438 30.6058 27.7185 29.9652 27.7295 29.2934V26.7464C26.0339 27.0342 24.3236 27.2289 22.6065 27.3274ZM32.9495 25.8774V33.0244C32.9397 33.5316 33.0803 34.0303 33.3535 34.4577C33.6266 34.8852 34.0201 35.2222 34.4845 35.4264C34.8708 35.5963 35.2931 35.668 35.7138 35.6352C36.1345 35.6024 36.5406 35.4661 36.8959 35.2385C37.2512 35.0109 37.5447 34.6989 37.7503 34.3304C37.956 33.9619 38.0673 33.5483 38.0745 33.1264V24.8234C36.389 25.2767 34.678 25.629 32.9505 25.8784L32.9495 25.8774ZM43.6465 23.6804H43.2935V28.7044C43.3223 29.3905 43.6148 30.039 44.11 30.5148C44.6051 30.9906 45.2648 31.257 45.9515 31.2584C46.6386 31.2587 47.2991 30.9929 47.7945 30.5167C48.2899 30.0405 48.5816 29.391 48.6085 28.7044V22.5124L47.5285 22.7564C46.3045 23.0304 45.0125 23.3204 43.6465 23.6824V23.6804ZM53.6405 21.3474V24.3784C53.655 24.8991 53.8232 25.4038 54.1239 25.8291C54.4246 26.2544 54.8445 26.5812 55.3305 26.7684C55.6525 26.8924 55.9965 26.9514 56.3425 26.9414H56.3555C57.0375 26.9399 57.6916 26.6705 58.1768 26.1913C58.662 25.712 58.9395 25.0613 58.9495 24.3794V20.3004C57.4145 20.6484 55.6425 20.9984 53.6325 21.3484L53.6405 21.3474ZM37.6325 59.5114C36.9448 59.8726 36.211 60.1384 35.4515 60.3014C34.6895 60.4634 33.9125 60.5444 33.1335 60.5434C32.3438 60.5518 31.559 60.4184 30.8165 60.1494C30.1343 59.9023 29.51 59.5177 28.9825 59.0194C28.4596 58.5169 28.0492 57.9092 27.7785 57.2364C27.203 55.7319 27.203 54.0679 27.7785 52.5634C28.0492 51.8909 28.4596 51.2835 28.9825 50.7814C29.51 50.2829 30.1342 49.8979 30.8165 49.6504C31.559 49.3811 32.3437 49.2473 33.1335 49.2554C33.9341 49.2485 34.7318 49.3532 35.5035 49.5664C36.2135 49.7664 36.8645 50.1344 37.4045 50.6364L35.7385 52.4564C35.4298 52.1331 35.0591 51.8753 34.6485 51.6984C34.2435 51.5264 33.7385 51.4414 33.1325 51.4414C32.6625 51.4344 32.1975 51.5214 31.7625 51.6984C31.3627 51.8646 31.0023 52.1129 30.7046 52.4273C30.4069 52.7417 30.1786 53.1151 30.0345 53.5234C29.7217 54.4203 29.7217 55.3966 30.0345 56.2934C30.1835 56.6974 30.4125 57.0674 30.7085 57.3804C31.0045 57.6934 31.3635 57.9404 31.7615 58.1054C32.1975 58.2824 32.6635 58.3704 33.1325 58.3634C33.5835 58.3734 34.0325 58.3134 34.4665 58.1884C34.7745 58.0984 35.0735 57.9794 35.3595 57.8324V56.0824H33.4365V53.8984H37.6325V59.5114ZM7.3125 51.6684C7.6445 51.8154 7.9375 52.0384 8.1675 52.3214L9.9855 50.8334C9.76098 50.5482 9.49542 50.2978 9.1975 50.0904C8.91272 49.8923 8.60519 49.7292 8.2815 49.6044C7.96755 49.4848 7.64268 49.396 7.3115 49.3394C6.99871 49.2852 6.68195 49.2571 6.3645 49.2554C5.57441 49.2472 4.78927 49.381 4.0465 49.6504C3.36505 49.898 2.74156 50.2826 2.2145 50.7804C1.69107 51.2827 1.28034 51.8904 1.0095 52.5634C0.434009 54.0679 0.434009 55.7319 1.0095 57.2364C1.2805 57.9094 1.6915 58.5164 2.2145 59.0184C2.74151 59.5163 3.36502 59.9009 4.0465 60.1484C4.78878 60.4169 5.5732 60.55 6.3625 60.5414C7.1025 60.5414 7.8355 60.3874 8.5135 60.0884C9.20903 59.7872 9.80726 59.2987 10.2415 58.6774L8.2715 57.2064C8.0385 57.5614 7.7215 57.8534 7.3485 58.0554C6.9515 58.2634 6.5085 58.3674 6.0605 58.3594C5.64954 58.3623 5.24307 58.2739 4.8705 58.1004C4.50295 57.9287 4.17555 57.6817 3.9095 57.3754C3.62917 57.0561 3.41047 56.6875 3.2645 56.2884C2.95173 55.3916 2.95173 54.4153 3.2645 53.5184C3.41008 53.1137 3.63135 52.7404 3.9165 52.4184C4.19547 52.107 4.53775 51.8587 4.92044 51.6902C5.30312 51.5217 5.71738 51.4369 6.1355 51.4414C6.53951 51.4325 6.94078 51.5099 7.3125 51.6684ZM13.2785 52.5634C12.983 53.3063 12.8369 54.1001 12.8485 54.8994C12.8375 55.6994 12.9825 56.4934 13.2785 57.2364C13.5485 57.9094 13.9595 58.5164 14.4825 59.0184C15.0098 59.5164 15.6337 59.901 16.3155 60.1484C17.8155 60.6744 19.4505 60.6744 20.9505 60.1484C21.6328 59.9013 22.257 59.5167 22.7845 59.0184C23.3074 58.5163 23.7177 57.9089 23.9885 57.2364C24.564 55.7319 24.564 54.0679 23.9885 52.5634C23.7178 51.8909 23.3074 51.2835 22.7845 50.7814C22.257 50.2829 21.6328 49.8979 20.9505 49.6504C19.4502 49.1248 17.8158 49.1248 16.3155 49.6504C15.6337 49.8979 15.0099 50.2825 14.4825 50.7804C13.9594 51.2828 13.549 51.8905 13.2785 52.5634ZM15.5405 56.2884C15.3789 55.8434 15.2986 55.3729 15.3035 54.8994C15.2999 54.429 15.3802 53.9617 15.5405 53.5194C15.684 53.1113 15.9118 52.7379 16.209 52.4235C16.5061 52.1091 16.8661 51.8607 17.2655 51.6944C18.1473 51.3512 19.1257 51.3512 20.0075 51.6944C20.4083 51.8604 20.7694 52.1092 21.0672 52.4246C21.365 52.74 21.5928 53.1148 21.7355 53.5244C22.0483 54.4213 22.0483 55.3976 21.7355 56.2944C21.5858 56.6981 21.3563 57.0675 21.0605 57.3804C20.7645 57.6914 20.4064 57.9367 20.0095 58.1004C19.1279 58.4448 18.1491 58.4448 17.2675 58.1004C16.8693 57.9352 16.5105 57.6878 16.2145 57.3744C15.9184 57.0616 15.6891 56.6927 15.5405 56.2884ZM44.8145 49.5294H41.6035V60.2704H43.9635V52.6234H43.9935L48.6745 60.2704H51.7675V49.5304H49.4045V56.9934H49.3745L44.8145 49.5294ZM55.8125 49.5294H58.1745V60.2704H55.8125V49.5294ZM61.2335 51.6234H64.2935V60.2704H66.6575V51.6234H69.7175V49.5294H61.2335V51.6234ZM72.8985 49.5294H80.1855V51.7134H75.2605V53.7164H79.9105V55.9014H75.2605V58.0864H80.4565V60.2704H72.8965V49.5304L72.8985 49.5294Z" fill="#121212"/>
</g>
</g>
<defs>
<clipPath id="clip0_2_2233">
<rect width="81" height="60" fill="white" transform="translate(0.0603027 0.553467)"/>
</clipPath>
</defs>
</svg>
