<svg width="122" height="35" viewBox="0 0 122 35" fill="none" xmlns="http://www.w3.org/2000/svg">
<g clip-path="url(#clip0_2_2205)">
<mask id="mask0_2_2205" style="mask-type:luminance" maskUnits="userSpaceOnUse" x="0" y="1" width="121" height="33">
<path d="M0.515259 1.28247H120.515V33.8245H0.515259V1.28247Z" fill="white"/>
</mask>
<g mask="url(#mask0_2_2205)">
<path d="M28.6383 23.4985L28.6223 23.4445L39.2703 13.7065V9.01349H22.1863V13.7055H32.3913L32.4073 13.7515L21.8633 23.4985V28.1905H39.4423V23.4985H28.6383ZM49.9293 8.56649C47.9593 8.56649 46.3523 8.86349 45.1113 9.45749C43.9552 9.97474 42.9812 10.8272 42.3153 11.9045C41.6788 12.9885 41.279 14.1949 41.1423 15.4445L46.3263 16.1735C46.5143 15.0695 46.8893 14.2875 47.4513 13.8265C48.0911 13.3446 48.8791 13.1013 49.6793 13.1385C50.7313 13.1385 51.4943 13.4185 51.9693 13.9815C52.4393 14.5435 52.6773 15.3215 52.6773 16.3475V16.8585H47.6933C45.1563 16.8585 43.3333 17.4205 42.2253 18.5445C41.1173 19.6685 40.5643 21.1515 40.5653 22.9945C40.5653 24.8835 41.1193 26.2885 42.2253 27.2095C43.3323 28.1315 44.7233 28.5895 46.3993 28.5835C48.4793 28.5835 50.0793 27.8695 51.1983 26.4395C51.859 25.5613 52.3309 24.5559 52.5843 23.4865H52.7733L53.4873 28.1785H58.1843V16.2965C58.1843 13.8405 57.5363 11.9385 56.2413 10.5895C54.9453 9.24149 52.8413 8.56649 49.9293 8.56649ZM51.5723 23.2145C50.8263 23.8345 49.8513 24.1445 48.6353 24.1445C47.6343 24.1445 46.9383 23.9695 46.5483 23.6185C46.3587 23.4527 46.2079 23.2472 46.1065 23.0167C46.0051 22.7862 45.9555 22.5363 45.9613 22.2845C45.9499 22.0468 45.9871 21.8092 46.0707 21.5864C46.1542 21.3636 46.2824 21.1601 46.4473 20.9885C46.6255 20.8214 46.8359 20.6922 47.0655 20.6087C47.2951 20.5251 47.5393 20.489 47.7833 20.5025H52.6863V20.8255C52.6965 21.2825 52.6014 21.7358 52.4082 22.1501C52.215 22.5644 51.929 22.9286 51.5723 23.2145ZM86.5843 9.01349H81.0343V28.1935H86.5843V9.01349ZM119.345 9.01349C117.778 9.01349 116.542 9.56649 115.638 10.6715C114.99 11.4655 114.496 12.6395 114.159 14.1915H113.996L113.27 9.01349H108.531V28.1905H114.08V18.3565C114.08 17.1165 114.371 16.1655 114.952 15.5045C115.533 14.8425 116.606 14.5125 118.17 14.5125H120.276V9.01349H119.345ZM103.031 9.64049C101.736 8.87049 100.102 8.48649 98.1293 8.48849C95.0243 8.48849 92.5943 9.37149 90.8393 11.1385C89.0833 12.9045 88.2063 15.3395 88.2063 18.4435C88.1615 20.3201 88.5715 22.1797 89.4013 23.8635C90.1616 25.3644 91.345 26.6097 92.8053 27.4455C94.2753 28.2955 96.0233 28.7195 98.0503 28.7215C99.8033 28.7215 101.268 28.4515 102.443 27.9125C103.548 27.4282 104.511 26.6687 105.239 25.7065C105.932 24.7627 106.447 23.7003 106.758 22.5715L101.977 21.2335C101.776 21.9677 101.388 22.6376 100.852 23.1785C100.311 23.7175 99.4073 23.9875 98.1373 23.9875C96.6283 23.9875 95.5033 23.5555 94.7623 22.6915C94.2253 22.0685 93.8883 21.1775 93.7383 20.0225H106.831C106.885 19.4825 106.913 19.0305 106.913 18.6655V17.4715C106.945 15.8672 106.613 14.2766 105.943 12.8185C105.315 11.4899 104.3 10.3821 103.031 9.64049ZM97.9693 13.0605C100.219 13.0605 101.495 14.1665 101.797 16.3785H93.8373C93.9634 15.6403 94.2695 14.9445 94.7283 14.3525C95.4583 13.4885 96.5393 13.0585 97.9693 13.0605ZM83.8703 1.28349C83.4528 1.26948 83.0367 1.33945 82.6468 1.48924C82.2569 1.63903 81.901 1.86559 81.6003 2.15549C81.3044 2.44801 81.0724 2.79875 80.919 3.18552C80.7657 3.5723 80.6942 3.98669 80.7093 4.40249C80.6862 5.03362 80.86 5.65629 81.2065 6.18429C81.553 6.71229 82.0551 7.11949 82.6433 7.34949C83.0333 7.50249 83.4513 7.57349 83.8703 7.55849C84.2866 7.57412 84.7016 7.50298 85.089 7.34959C85.4763 7.1962 85.8275 6.96391 86.1203 6.66749C86.4106 6.36821 86.6372 6.01322 86.7866 5.62394C86.9359 5.23465 87.0049 4.81915 86.9893 4.40249C87.0087 3.98832 86.9413 3.57466 86.7915 3.18805C86.6417 2.80144 86.4127 2.45041 86.1193 2.15749C85.8258 1.86447 85.4746 1.63577 85.0879 1.48599C84.7012 1.3362 84.2875 1.2686 83.8733 1.28749L83.8703 1.28349ZM72.4073 8.48849C70.5173 8.48849 68.9973 9.08149 67.8503 10.2675C67.0003 11.1455 66.3773 12.4575 65.9803 14.2005H65.8023L65.0773 9.02249H60.3373V33.7035H65.8873V23.5375H66.0893C66.2593 24.2155 66.4963 24.8745 66.7993 25.5045C67.2688 26.5309 68.0382 27.391 69.0063 27.9715C70.0109 28.5192 71.1424 28.7918 72.2863 28.7615C74.6093 28.7615 76.3783 27.8575 77.5933 26.0495C78.8083 24.2425 79.4163 21.7195 79.4163 18.4825C79.4163 15.3565 78.8283 12.9095 77.6523 11.1415C76.4773 9.37249 74.7283 8.48849 72.4073 8.48849ZM72.9693 22.3855C72.3223 23.3225 71.3093 23.7905 69.9313 23.7905C69.3633 23.8165 68.7973 23.707 68.28 23.471C67.7627 23.2351 67.309 22.8794 66.9563 22.4335C66.2373 21.5325 65.8793 20.2995 65.8813 18.7335V18.3675C65.8813 16.7775 66.2393 15.5595 66.9563 14.7155C67.6723 13.8705 68.6643 13.4525 69.9313 13.4615C71.3343 13.4615 72.3533 13.9065 72.9893 14.7965C73.6243 15.6865 73.9423 16.9265 73.9423 18.5195C73.9463 20.1655 73.6233 21.4545 72.9753 22.3855H72.9693ZM19.7143 23.4985H0.515259V28.1965H19.7153V23.4985H19.7143Z" fill="#121212"/>
</g>
</g>
<defs>
<clipPath id="clip0_2_2205">
<rect width="121" height="34" fill="white" transform="translate(0.0603027 0.553467)"/>
</clipPath>
</defs>
</svg>
