<svg width="33" height="33" viewBox="0 0 33 33" fill="none" xmlns="http://www.w3.org/2000/svg">
<path d="M21.5175 17.1195L27.1137 14.687C27.4824 14.5235 27.793 14.2524 28.0048 13.9092C28.2166 13.5661 28.3198 13.1669 28.3007 12.7641C28.2817 12.3613 28.1413 11.9737 27.898 11.6521C27.6547 11.3304 27.3199 11.0899 26.9375 10.962L6.92746 4.42821C6.57751 4.31604 6.20342 4.30247 5.84625 4.38897C5.48909 4.47547 5.16267 4.65871 4.90281 4.91856C4.64296 5.17841 4.45972 5.50484 4.37322 5.862C4.28672 6.21916 4.3003 6.59325 4.41246 6.94321L10.9462 26.9532C11.0695 27.3393 11.3084 27.6782 11.6305 27.9241C11.9527 28.17 12.3425 28.3111 12.7475 28.3282H12.8462C13.2345 28.3295 13.6145 28.2165 13.939 28.0033C14.2635 27.7902 14.5182 27.4863 14.6712 27.1295L17.1037 21.5332L23.3125 27.742C23.4982 27.9277 23.7187 28.0751 23.9614 28.1756C24.204 28.2762 24.4642 28.3279 24.7268 28.3279C24.9895 28.3279 25.2496 28.2762 25.4923 28.1756C25.735 28.0751 25.9555 27.9277 26.1412 27.742L27.7262 26.157C27.912 25.9712 28.0593 25.7507 28.1599 25.5081C28.2604 25.2654 28.3122 25.0053 28.3122 24.7426C28.3122 24.4799 28.2604 24.2198 28.1599 23.9771C28.0593 23.7344 27.912 23.5139 27.7262 23.3282L21.5175 17.1195ZM24.7262 26.3282L18.5187 20.1195C18.2882 19.8886 18.0047 19.7177 17.693 19.6216C17.3812 19.5254 17.0507 19.507 16.7303 19.5679C16.4098 19.6288 16.109 19.7672 15.8543 19.9709C15.5995 20.1747 15.3985 20.4377 15.2687 20.737L12.8412 26.3182L6.31246 6.32821L26.2962 12.8545L20.7162 15.2807C20.4169 15.4105 20.1539 15.6115 19.9502 15.8663C19.7464 16.121 19.608 16.4218 19.5471 16.7422C19.4863 17.0627 19.5047 17.3932 19.6008 17.705C19.697 18.0167 19.8679 18.3002 20.0987 18.5307L26.3125 24.742L24.7262 26.3282ZM11.3125 3.32821V2.32821C11.3125 2.06299 11.4178 1.80864 11.6054 1.6211C11.7929 1.43356 12.0472 1.32821 12.3125 1.32821C12.5777 1.32821 12.832 1.43356 13.0196 1.6211C13.2071 1.80864 13.3125 2.06299 13.3125 2.32821V3.32821C13.3125 3.59342 13.2071 3.84778 13.0196 4.03531C12.832 4.22285 12.5777 4.32821 12.3125 4.32821C12.0472 4.32821 11.7929 4.22285 11.6054 4.03531C11.4178 3.84778 11.3125 3.59342 11.3125 3.32821ZM1.31246 12.3282C1.31246 12.063 1.41782 11.8086 1.60535 11.6211C1.79289 11.4336 2.04724 11.3282 2.31246 11.3282H3.31246C3.57768 11.3282 3.83203 11.4336 4.01957 11.6211C4.2071 11.8086 4.31246 12.063 4.31246 12.3282C4.31246 12.5934 4.2071 12.8478 4.01957 13.0353C3.83203 13.2228 3.57768 13.3282 3.31246 13.3282H2.31246C2.04724 13.3282 1.79289 13.2228 1.60535 13.0353C1.41782 12.8478 1.31246 12.5934 1.31246 12.3282ZM15.4187 3.88071L16.4187 1.88071C16.5374 1.6435 16.7454 1.46316 16.9971 1.37936C17.2487 1.29555 17.5234 1.31515 17.7606 1.43383C17.9978 1.55252 18.1781 1.76057 18.2619 2.01222C18.3457 2.26387 18.3261 2.5385 18.2075 2.77571L17.2075 4.77571C17.1487 4.89316 17.0674 4.99788 16.9681 5.08391C16.8689 5.16993 16.7537 5.23556 16.6291 5.27706C16.5045 5.31855 16.3729 5.3351 16.2419 5.32575C16.1109 5.31641 15.983 5.28135 15.8656 5.22258C15.7481 5.16382 15.6434 5.08249 15.5574 4.98325C15.4714 4.88401 15.4057 4.7688 15.3642 4.6442C15.3227 4.51959 15.3062 4.38803 15.3155 4.25703C15.3249 4.12603 15.3599 3.99816 15.4187 3.88071ZM5.20746 15.8807C5.26631 15.9982 5.30142 16.1262 5.31078 16.2573C5.32014 16.3884 5.30356 16.52 5.262 16.6447C5.22044 16.7694 5.15471 16.8847 5.06856 16.9839C4.98242 17.0832 4.87755 17.1645 4.75996 17.2232L2.75996 18.2232C2.52276 18.3419 2.24812 18.3615 1.99647 18.2777C1.74482 18.1939 1.53677 18.0135 1.41809 17.7763C1.2994 17.5391 1.27981 17.2645 1.36361 17.0128C1.44742 16.7612 1.62776 16.5531 1.86496 16.4345L3.86496 15.4345C3.9824 15.3756 4.1103 15.3404 4.24134 15.3309C4.37238 15.3215 4.504 15.338 4.62868 15.3794C4.75335 15.4208 4.86864 15.4864 4.96795 15.5725C5.06726 15.6585 5.14865 15.7632 5.20746 15.8807Z" fill="#F7F7F7"/>
</svg>
