<svg width="33" height="33" viewBox="0 0 33 33" fill="none" xmlns="http://www.w3.org/2000/svg">
<path d="M28.5938 6.32812H4.59375C4.32853 6.32812 4.07418 6.43348 3.88664 6.62102C3.69911 6.80855 3.59375 7.06291 3.59375 7.32812V24.3281C3.59375 24.8586 3.80446 25.3673 4.17954 25.7423C4.55461 26.1174 5.06332 26.3281 5.59375 26.3281H27.5938C28.1242 26.3281 28.6329 26.1174 29.008 25.7423C29.383 25.3673 29.5938 24.8586 29.5938 24.3281V7.32812C29.5938 7.06291 29.4884 6.80855 29.3009 6.62102C29.1133 6.43348 28.859 6.32812 28.5938 6.32812ZM16.5938 16.9719L7.165 8.32812H26.0225L16.5938 16.9719ZM12.9325 16.3281L5.59375 23.0544V9.60188L12.9325 16.3281ZM14.4125 17.6844L15.9125 19.0656C16.097 19.235 16.3383 19.329 16.5887 19.329C16.8392 19.329 17.0805 19.235 17.265 19.0656L18.765 17.6844L26.015 24.3281H7.165L14.4125 17.6844ZM20.255 16.3281L27.5938 9.60063V23.0556L20.255 16.3281Z" fill="#F7F7F7"/>
</svg>
