<svg width="1131" height="168" viewBox="0 0 1131 168" fill="none" xmlns="http://www.w3.org/2000/svg">
<g clip-path="url(#clip0_2006_4115)">
<g clip-path="url(#clip1_2006_4115)">
<path d="M905.665 74.3787C909.302 65.3776 911.12 60.8771 914.262 58.148C917.024 55.7458 920.476 54.2813 924.122 53.9619C928.267 53.5995 932.768 55.4178 941.769 59.0545L962.661 67.4955C971.662 71.1322 976.162 72.9502 978.892 76.0907C981.294 78.8536 982.759 82.3047 983.078 85.9517C983.441 90.0964 981.622 94.597 977.986 103.598L969.545 124.49C965.908 133.491 964.09 137.992 960.95 140.721C958.187 143.123 954.735 144.589 951.089 144.907C946.943 145.271 942.443 143.453 933.442 139.816L912.55 131.375C903.549 127.738 899.048 125.92 896.318 122.778C893.917 120.017 892.451 116.564 892.133 112.918C891.769 108.773 893.588 104.272 897.224 95.271L905.665 74.3787Z" fill="#C6DF5D"/>
</g>
<g clip-path="url(#clip2_2006_4115)">
<path d="M927.416 77.6153C929.548 72.3378 935.606 69.8662 940.909 72.0085L957.383 78.6646C962.686 80.8069 965.326 86.7931 963.194 92.0706C961.863 95.3658 959.002 97.5674 955.75 98.2348C957.625 100.975 958.154 104.546 956.822 107.841C954.69 113.119 948.632 115.59 943.33 113.448L943.121 113.364C940.67 112.373 938.788 110.562 937.683 108.38L934.226 116.936C932.065 122.284 925.882 124.742 920.535 122.582C915.246 120.445 912.535 114.446 914.673 109.154C916.005 105.859 918.865 103.659 922.118 102.99C920.242 100.251 919.713 96.6801 921.045 93.3848C922.376 90.0906 925.237 87.889 928.489 87.2206C926.613 84.4816 926.085 80.9105 927.416 77.6153ZM940.537 101.316C939.185 104.736 940.883 108.685 944.432 110.119L944.64 110.204C948.206 111.644 952.191 109.961 953.577 106.53C954.964 103.098 953.267 99.12 949.701 97.6792L949.492 97.595C945.943 96.161 941.979 97.822 940.575 101.221L940.537 101.316ZM926.855 106.793L926.815 106.775C923.258 105.364 919.299 107.048 917.919 110.466C916.538 113.883 918.267 117.891 921.846 119.337C925.484 120.806 929.577 119.099 930.981 115.624L933.47 109.465L926.855 106.793ZM949.457 79.2373L944.398 91.7607L951.012 94.4332C954.578 95.8739 958.563 94.191 959.949 90.7604C961.335 87.3289 959.638 83.3504 956.072 81.9097L949.457 79.2373ZM939.841 93.6957L933.226 91.0232C929.66 89.5825 925.676 91.2654 924.29 94.696C922.909 98.1145 924.587 102.076 928.126 103.53L928.167 103.547L934.781 106.219L937.287 100.017C937.295 99.9968 937.303 99.9773 937.311 99.9579C937.319 99.9375 937.327 99.918 937.335 99.8976L939.841 93.6957ZM930.661 78.9274C929.275 82.3579 930.972 86.3364 934.538 87.7772L941.152 90.4496L946.212 77.9261L939.598 75.2537C936.032 73.8129 932.047 75.4958 930.661 78.9274Z" fill="#E5FF76"/>
</g>
</g>
<path d="M306.06 124.054C306.06 100.029 325.536 80.5536 349.56 80.5536C373.585 80.5536 393.06 100.029 393.06 124.054C393.06 148.078 373.585 167.554 349.56 167.554C325.536 167.554 306.06 148.078 306.06 124.054Z" fill="#C6DF5D"/>
<g clip-path="url(#clip3_2006_4115)">
<path d="M381.979 120.844H362.379L379.353 111.042L375.987 105.209L359.011 115.01L368.809 98.0346L362.977 94.6676L353.177 111.639V92.0396H346.44V111.641L336.64 94.6676L330.806 98.0346L340.604 115.006L323.633 105.209L320.264 111.042L337.238 120.844H317.638V127.58H337.236L320.264 137.381L323.631 143.215L340.607 133.414L330.806 150.389L336.638 153.756L346.44 136.783V156.381H353.177V136.363L363.157 153.649L368.626 150.492L358.644 133.201L375.982 143.213L379.351 137.379L362.379 127.578H381.977V120.844H381.979ZM349.809 133.369C348.606 133.369 347.415 133.132 346.304 132.672C345.193 132.212 344.184 131.537 343.333 130.687C342.483 129.836 341.808 128.826 341.348 127.715C340.888 126.604 340.651 125.413 340.651 124.21C340.65 123.007 340.887 121.816 341.347 120.704C341.807 119.593 342.482 118.583 343.332 117.732C344.182 116.882 345.191 116.207 346.302 115.746C347.413 115.286 348.604 115.049 349.806 115.049C352.235 115.048 354.564 116.013 356.282 117.731C357.999 119.448 358.964 121.778 358.964 124.208C358.965 126.637 358 128.967 356.283 130.685C354.566 132.403 352.237 133.368 349.809 133.369Z" fill="#E5FF76"/>
</g>
<g clip-path="url(#clip4_2006_4115)">
<g clip-path="url(#clip5_2006_4115)">
<path d="M1093.85 21.6331C1094.28 19.4646 1096.38 18.0483 1098.54 18.4698L1126.14 23.834C1128.31 24.2555 1129.73 26.3553 1129.3 28.5237L1123.94 56.1192C1123.52 58.2877 1121.42 59.704 1119.25 59.2825L1091.65 53.9183C1089.49 53.4968 1088.07 51.397 1088.49 49.2286L1093.85 21.6331Z" fill="#C6DF5D"/>
</g>
<g clip-path="url(#clip6_2006_4115)">
<path d="M1118.19 28.2333L1114.69 27.5544L1116.86 32.9622L1111.24 26.8831L1107.75 26.2042L1109.63 33.103L1104.29 25.5328L1100.8 24.8539L1102.27 33.5746L1096.14 48.8449L1099.63 49.5238L1109.49 33.7891L1103.09 50.1952L1106.58 50.8741L1116.73 33.6494L1110.03 51.5454L1113.52 52.2243L1124.08 33.1878L1118.19 28.2333Z" fill="#E5FF76"/>
</g>
</g>
<g clip-path="url(#clip7_2006_4115)">
<path d="M719.365 98.2721C720.142 93.3628 724.753 90.0133 729.662 90.7908L755.342 94.8581C760.251 95.6357 763.601 100.246 762.823 105.155L758.756 130.835C757.978 135.744 753.368 139.094 748.459 138.316L722.779 134.249C717.869 133.472 714.52 128.861 715.298 123.952L719.365 98.2721Z" fill="#C6DF5D"/>
<g clip-path="url(#clip8_2006_4115)">
<path d="M753.052 119.144L743.344 117.606L736.43 99.595L744.481 100.87C745.506 101.033 746.366 101.729 746.738 102.699L753.052 119.144ZM752.567 121.273L747.295 127.792C746.641 128.6 745.606 128.998 744.581 128.835L727.806 126.178L734.142 118.355L752.567 121.273ZM738.09 110.008L726.149 124.753L723.148 116.931C722.776 115.961 722.949 114.867 723.602 114.06L734.488 100.619L738.09 110.008Z" fill="#E5FF76"/>
</g>
</g>
<g clip-path="url(#clip9_2006_4115)">
<g clip-path="url(#clip10_2006_4115)">
<path d="M151.015 96.8979L138.828 87.9646C135.897 85.816 133.802 82.7674 132.873 79.3017L121.831 38.0895C120.44 32.8986 123.438 27.4779 128.699 25.6769L170.295 11.4306C173.317 10.3952 176.595 10.3936 179.582 11.4257L197.167 17.5025C200.314 18.5901 202.691 21.1097 203.533 24.2528L216.088 71.107C217.449 76.1878 214.492 81.4877 209.333 83.2169L163.081 98.7129C158.963 100.092 154.444 99.412 151.015 96.8979Z" fill="#C6DF5D"/>
</g>
<g clip-path="url(#clip11_2006_4115)">
<path d="M154.577 51.4191L154.433 50.8792C154.066 49.5114 154.858 48.0839 156.245 47.6109L166.344 44.1697L186.176 61.3006L181.251 42.921L177.46 43.4139L177.391 43.1569C177.021 41.7737 177.835 40.3318 179.245 39.8753L188.474 36.889L188.835 38.2355C189.004 38.8673 188.678 39.5342 188.063 39.816L185.914 40.7999L193.889 70.5658L191.325 72.2946C189.181 73.7385 186.32 73.5744 184.421 71.8967L165.033 54.7629L170.361 74.6475L174.829 74.322L174.875 74.7321C175.021 76.016 174.205 77.2358 172.931 77.6383L162.488 80.9407C161.992 79.6511 162.669 78.1964 164.003 77.6835L165.354 77.1652L158.25 50.6525L154.577 51.4191Z" fill="#E5FF76"/>
<path d="M172.065 16.5209L130.468 30.7675C127.977 31.6203 126.556 34.1885 127.215 36.6478L138.258 77.8599C138.877 80.1704 140.273 82.2022 142.228 83.6352L154.414 92.5676C156.384 94.0119 158.979 94.4025 161.345 93.6102L207.597 78.1142C209.968 77.3207 211.327 74.885 210.701 72.5504L198.146 25.6962C197.76 24.2521 196.668 23.0943 195.221 22.5947L177.637 16.5186C175.845 15.8994 173.878 15.9005 172.065 16.5209ZM133.993 35.52C133.287 35.2413 133.324 34.2571 134.05 34.0057L173.404 20.3768C174.657 19.9427 176.022 19.9549 177.252 20.4099L186.831 23.9567C187.195 24.091 187.176 24.597 186.804 24.7185L144.931 38.4157C143.664 38.8297 142.294 38.7921 141.068 38.3089L133.993 35.52ZM144.88 46.1941C144.51 44.8138 145.32 43.3741 146.725 42.9148L190.994 28.4304C192.364 27.9826 193.82 28.7375 194.181 30.0831L205.052 70.6539C205.421 72.0313 204.615 73.4687 203.213 73.9304L159.253 88.4321C157.73 88.9346 156.107 88.096 155.706 86.5978L144.88 46.1941Z" fill="#E5FF76"/>
</g>
</g>
<g clip-path="url(#clip12_2006_4115)" filter="url(#filter0_d_2006_4115)">
<rect width="36" height="36" transform="translate(1.41785 124.571) rotate(-36)" fill="white" fill-opacity="0.01"/>
<path d="M6.70791 131.853C3.78629 127.831 4.67773 122.203 8.699 119.281L23.2613 108.701C27.2826 105.78 32.9109 106.671 35.8325 110.692L46.4127 125.255C49.3343 129.276 48.4428 134.904 44.4216 137.826L29.8593 148.406C25.838 151.328 20.2097 150.436 17.288 146.415L6.70791 131.853Z" fill="#C6DF5D"/>
<g clip-path="url(#clip13_2006_4115)">
<path d="M19.3745 119.111C13.8271 123.141 12.6788 131.02 16.8115 136.708C20.1178 141.259 25.8012 143.028 30.7819 141.491C31.3536 141.221 31.3065 140.769 31.1084 140.496C30.9303 140.251 30.3311 139.446 29.7016 138.589C27.3599 141.242 25.4346 139.832 25.4346 139.832C24.1123 138.973 23.224 139.136 23.224 139.136C21.8487 139.158 22.8378 138.459 22.8378 138.459C23.8995 137.799 25.1485 138.402 25.1485 138.402C27.1887 139.325 28.3122 137.814 28.6948 137.135C28.3008 136.404 28.231 135.76 28.3313 135.294C25.9107 136.654 22.9241 137.476 20.0569 133.529C19.2399 132.405 18.9645 131.201 19.0826 130.012C18.7901 129.829 17.6851 129.031 17.2002 127.216C17.2002 127.216 17.8422 126.327 20.7301 126.264C21.3653 125.454 22.1424 124.715 22.993 124.091C23.8494 123.475 24.7923 122.964 25.7606 122.609C26.7099 119.884 27.7531 119.549 27.7531 119.549C29.3309 120.57 29.7483 121.868 29.832 122.202C31.0003 122.456 32.058 123.092 32.875 124.217C35.7487 128.172 34.0315 130.751 31.9805 132.63C32.5727 132.688 33.3494 133.082 34.0477 134.043C35.0487 135.421 35.8424 136.539 36.0887 136.878C36.288 137.152 36.7026 137.341 37.138 136.871C40.1368 132.609 40.2069 126.661 36.9018 122.112C32.7691 116.423 24.922 115.08 19.3745 119.111Z" fill="#E5FF76"/>
</g>
</g>
<defs>
<filter id="filter0_d_2006_4115" x="0.514074" y="102.959" width="52.0925" height="52.0925" filterUnits="userSpaceOnUse" color-interpolation-filters="sRGB">
<feFlood flood-opacity="0" result="BackgroundImageFix"/>
<feColorMatrix in="SourceAlpha" type="matrix" values="0 0 0 0 0 0 0 0 0 0 0 0 0 0 0 0 0 0 127 0" result="hardAlpha"/>
<feOffset dy="0.451887"/>
<feGaussianBlur stdDeviation="0.451887"/>
<feComposite in2="hardAlpha" operator="out"/>
<feColorMatrix type="matrix" values="0 0 0 0 0.0627451 0 0 0 0 0.0941176 0 0 0 0 0.156863 0 0 0 0.05 0"/>
<feBlend mode="normal" in2="BackgroundImageFix" result="effect1_dropShadow_2006_4115"/>
<feBlend mode="normal" in="SourceGraphic" in2="effect1_dropShadow_2006_4115" result="shape"/>
</filter>
<clipPath id="clip0_2006_4115">
<rect width="78" height="78" fill="white" transform="translate(917.01 48.7837) rotate(22)"/>
</clipPath>
<clipPath id="clip1_2006_4115">
<rect width="79" height="79" fill="white" transform="translate(916.083 48.4091) rotate(22)"/>
</clipPath>
<clipPath id="clip2_2006_4115">
<rect width="40" height="56" fill="white" transform="translate(931.058 67.402) rotate(22)"/>
</clipPath>
<clipPath id="clip3_2006_4115">
<rect width="65" height="65" fill="white" transform="translate(317.06 91.5536)"/>
</clipPath>
<clipPath id="clip4_2006_4115">
<rect width="36" height="36" fill="white" transform="translate(1095.33 17.4497) rotate(11)"/>
</clipPath>
<clipPath id="clip5_2006_4115">
<rect width="37" height="37" fill="white" transform="translate(1094.34 17.2589) rotate(11)"/>
</clipPath>
<clipPath id="clip6_2006_4115">
<rect width="26" height="25" fill="white" transform="translate(1100.07 24.4844) rotate(11)"/>
</clipPath>
<clipPath id="clip7_2006_4115">
<rect width="44" height="44" fill="white" transform="translate(720.773 89.3829) rotate(8.99998)"/>
</clipPath>
<clipPath id="clip8_2006_4115">
<rect width="31" height="29" fill="white" transform="translate(725.604 97.2354) rotate(8.99998)"/>
</clipPath>
<clipPath id="clip9_2006_4115">
<rect width="88" height="88" fill="white" transform="translate(115.171 23.4409) rotate(-15)"/>
</clipPath>
<clipPath id="clip10_2006_4115">
<rect width="86" height="86" fill="white" transform="translate(116.396 24.1481) rotate(-15)"/>
</clipPath>
<clipPath id="clip11_2006_4115">
<rect width="74" height="74" fill="white" transform="translate(123.745 28.3906) rotate(-15)"/>
</clipPath>
<clipPath id="clip12_2006_4115">
<rect width="36" height="36" fill="white" transform="translate(1.41785 124.571) rotate(-36)"/>
</clipPath>
<clipPath id="clip13_2006_4115">
<rect width="26" height="25" fill="white" transform="translate(8.98962 126.487) rotate(-36)"/>
</clipPath>
</defs>
</svg>
