<svg width="285" height="744" viewBox="0 0 285 744" fill="none" xmlns="http://www.w3.org/2000/svg">
<g clip-path="url(#clip0_2_1903)">
<g clip-path="url(#clip1_2_1903)">
<g clip-path="url(#clip2_2_1903)">
<path d="M134.66 341.543C129.358 341.543 125.06 341.543 125.06 341.543V277.543C125.06 277.543 129.358 277.543 134.66 277.543H179.46C184.762 277.543 189.06 277.543 189.06 277.543V341.543C189.06 341.543 184.762 341.543 179.46 341.543H134.66Z" fill="#333333"/>
<path d="M173.834 304.173C173.826 304.133 173.82 304.092 173.81 304.052L173.786 303.981C173.775 303.946 173.763 303.912 173.75 303.877C173.74 303.853 173.728 303.829 173.718 303.807C173.702 303.775 173.685 303.742 173.668 303.711C173.655 303.687 173.641 303.666 173.627 303.644C173.54 303.509 173.431 303.39 173.306 303.291C173.283 303.274 173.262 303.257 173.24 303.241L173.216 303.223L157.86 292.985C157.375 292.662 156.743 292.662 156.258 292.985L140.903 303.223C140.894 303.229 140.887 303.235 140.879 303.241C140.828 303.278 140.779 303.317 140.732 303.358C140.638 303.441 140.558 303.538 140.492 303.645L140.45 303.711C140.433 303.742 140.417 303.774 140.402 303.806C140.375 303.863 140.351 303.922 140.332 303.981L140.31 304.049C140.299 304.089 140.292 304.129 140.284 304.17L140.273 304.233C140.264 304.295 140.26 304.358 140.26 304.421V314.661C140.26 314.725 140.265 314.788 140.274 314.849C140.277 314.873 140.282 314.89 140.287 314.912C140.294 314.953 140.301 314.993 140.314 315.034C140.321 315.057 140.328 315.08 140.337 315.105C140.348 315.141 140.359 315.177 140.373 315.21C140.382 315.233 140.396 315.255 140.405 315.277C140.432 315.333 140.462 315.388 140.495 315.441C140.514 315.473 140.536 315.499 140.559 315.526C140.575 315.549 140.59 315.566 140.609 315.589C140.631 315.616 140.654 315.643 140.681 315.667C140.699 315.685 140.717 315.707 140.739 315.721C140.766 315.744 140.794 315.766 140.821 315.79C140.842 315.808 140.866 315.822 140.885 315.839C140.893 315.844 140.898 315.853 140.907 315.857L156.259 326.1C156.502 326.263 156.779 326.344 157.06 326.343C157.34 326.341 157.618 326.261 157.861 326.1L173.217 315.862L173.241 315.845C173.292 315.808 173.341 315.768 173.388 315.726C173.482 315.644 173.562 315.548 173.628 315.441C173.662 315.389 173.692 315.335 173.718 315.279C173.747 315.223 173.77 315.165 173.788 315.105C173.796 315.081 173.804 315.058 173.81 315.034C173.821 314.994 173.828 314.954 173.836 314.913C173.84 314.893 173.845 314.872 173.847 314.851C173.856 314.788 173.86 314.725 173.86 314.662V304.425C173.86 304.361 173.855 304.298 173.847 304.236C173.844 304.213 173.837 304.196 173.832 304.173H173.834ZM157.06 312.958L151.954 309.543L157.059 306.127L162.166 309.543L157.059 312.959L157.06 312.958ZM155.617 303.619L149.358 307.806L144.305 304.426L155.617 296.885V303.619ZM146.76 309.543L143.148 311.959V307.127L146.76 309.543ZM149.357 311.281L155.616 315.468V322.202L144.304 314.66L149.357 311.281ZM158.503 315.466L164.763 311.28L169.816 314.66L158.504 322.201L158.503 315.466ZM167.359 309.544L170.972 307.128V311.96L167.36 309.543L167.359 309.544ZM164.763 307.806L158.503 303.62V296.885L169.816 304.426L164.763 307.806Z" fill="#F7F7F7"/>
</g>
</g>
<g clip-path="url(#clip3_2_1903)">
<g clip-path="url(#clip4_2_1903)">
<g clip-path="url(#clip5_2_1903)">
<path d="M201.971 1.38232H167.15C159.583 1.38232 153.449 7.51627 153.449 15.0829V49.904C153.449 57.4706 159.583 63.6045 167.15 63.6045H201.971C209.537 63.6045 215.671 57.4706 215.671 49.904V15.0829C215.671 7.51627 209.537 1.38232 201.971 1.38232Z" fill="url(#paint0_linear_2_1903)"/>
<g style="mix-blend-mode:color-burn" opacity="0.8" filter="url(#filter0_df_2_1903)">
<path d="M203.099 19.0784H166.022C164.46 19.0784 163.195 20.3442 163.195 21.9056V43.6515C163.195 45.2129 164.46 46.4787 166.022 46.4787H203.099C204.661 46.4787 205.927 45.2129 205.927 43.6515V21.9056C205.927 20.3442 204.661 19.0784 203.099 19.0784Z" fill="black"/>
</g>
<mask id="mask0_2_1903" style="mask-type:alpha" maskUnits="userSpaceOnUse" x="162" y="18" width="45" height="29">
<path d="M203.684 18.1653H165.437C163.672 18.1653 162.24 19.5965 162.24 21.362V43.5107C162.24 45.2762 163.672 46.7074 165.437 46.7074H203.684C205.45 46.7074 206.881 45.2762 206.881 43.5107V21.362C206.881 19.5965 205.45 18.1653 203.684 18.1653Z" fill="black"/>
</mask>
<g mask="url(#mask0_2_1903)">
<g filter="url(#filter1_ii_2_1903)">
<path d="M204.141 18.1653H164.98C163.215 18.1653 161.784 19.5965 161.784 21.362V43.5107C161.784 45.2762 163.215 46.7074 164.98 46.7074H204.141C205.906 46.7074 207.337 45.2762 207.337 43.5107V21.362C207.337 19.5965 205.906 18.1653 204.141 18.1653Z" fill="url(#paint1_linear_2_1903)"/>
<path d="M204.141 18.1653H164.98C163.215 18.1653 161.784 19.5965 161.784 21.362V43.5107C161.784 45.2762 163.215 46.7074 164.98 46.7074H204.141C205.906 46.7074 207.337 45.2762 207.337 43.5107V21.362C207.337 19.5965 205.906 18.1653 204.141 18.1653Z" fill="url(#paint2_radial_2_1903)" fill-opacity="0.12"/>
<g style="mix-blend-mode:overlay">
<path d="M204.141 18.1653H164.98C163.215 18.1653 161.784 19.5965 161.784 21.362V43.5107C161.784 45.2762 163.215 46.7074 164.98 46.7074H204.141C205.906 46.7074 207.337 45.2762 207.337 43.5107V21.362C207.337 19.5965 205.906 18.1653 204.141 18.1653Z" fill="white" fill-opacity="0.2"/>
</g>
</g>
<g filter="url(#filter2_di_2_1903)">
<path d="M189.82 29.1252L206.938 46.2408L206.131 47.0482L189.013 29.9327L189.82 29.1252Z" fill="url(#paint3_linear_2_1903)"/>
</g>
<g filter="url(#filter3_di_2_1903)">
<path d="M179.3 29.1255L162.182 46.2411L162.989 47.0484L180.107 29.9328L179.3 29.1255Z" fill="url(#paint4_linear_2_1903)"/>
</g>
<g style="mix-blend-mode:multiply" filter="url(#filter4_df_2_1903)">
<path d="M192.847 30.1647C195.327 27.5203 195.57 24.0226 195.434 21.8939C195.362 20.7676 194.384 19.9922 193.254 19.9922H176.234C175.145 19.9922 174.189 20.7155 174.076 21.7974C173.853 23.9075 173.968 27.455 176.541 30.1647C180.451 34.2839 181.945 36.3177 184.694 36.3177C187.443 36.3177 189.166 34.238 192.847 30.1647Z" fill="black"/>
</g>
<g style="mix-blend-mode:multiply" filter="url(#filter5_df_2_1903)">
<path d="M192.847 31.5344C195.327 28.8907 195.57 25.393 195.434 23.2635C195.362 22.1373 194.384 21.3618 193.254 21.3618H176.234C175.145 21.3618 174.189 22.0852 174.076 23.1678C173.853 25.2772 173.968 28.8246 176.541 31.5344C180.451 35.6535 181.945 37.6882 184.694 37.6882C187.443 37.6882 189.166 35.6076 192.847 31.5344Z" fill="black"/>
</g>
<g filter="url(#filter6_i_2_1903)">
<path d="M194.664 31.2372C198.74 27.1508 202.813 23.0597 206.88 18.9639V18.0508H162.126V18.8503C162.126 18.8503 169.894 26.4998 174.685 31.2372C179.476 35.9754 181.306 38.3158 184.675 38.3158C188.042 38.3158 190.155 35.9226 194.664 31.238L194.664 31.2372Z" fill="url(#paint5_linear_2_1903)"/>
</g>
<g filter="url(#filter7_i_2_1903)">
<path d="M206.652 17.48H162.24C162.24 17.48 169.894 24.9015 174.685 29.639C179.476 34.3772 181.42 37.0605 184.675 37.0605C187.928 37.0605 190.155 34.3243 194.664 29.639C199.003 24.9536 206.652 17.48 206.652 17.48Z" fill="url(#paint6_linear_2_1903)"/>
</g>
</g>
</g>
</g>
</g>
<g clip-path="url(#clip6_2_1903)">
<g clip-path="url(#clip7_2_1903)">
<mask id="mask1_2_1903" style="mask-type:luminance" maskUnits="userSpaceOnUse" x="2" y="120" width="77" height="78">
<path d="M62.2502 120.54L4.95518 132.718C3.17247 133.097 2.03339 134.85 2.41098 136.633L14.7173 194.744C15.0949 196.527 16.8462 197.665 18.6289 197.286L75.9239 185.108C77.7066 184.729 78.8457 182.976 78.4681 181.193L66.1618 123.082C65.7842 121.299 64.0329 120.161 62.2502 120.54Z" fill="white"/>
</mask>
<g mask="url(#mask1_2_1903)">
<path fill-rule="evenodd" clip-rule="evenodd" d="M25.075 191.118L15.9617 183.667C13.781 181.893 12.2719 179.428 11.6848 176.679L4.79495 144.146C3.92733 140.048 6.486 135.952 10.653 134.763L43.6125 125.371C45.9964 124.688 48.5401 124.82 50.8404 125.746L64.2738 131.195C66.6782 132.17 68.4231 134.229 68.9488 136.71L76.7819 173.697C77.6312 177.708 75.1112 181.713 71.0242 182.849L34.3898 193.023C31.1286 193.929 27.6403 193.216 25.075 191.118Z" fill="white"/>
<path d="M29.7259 155.86L29.6353 155.434C29.4066 154.354 30.0815 153.275 31.1799 152.963L39.1824 150.697L53.9076 164.842L50.8346 150.333L47.8638 150.562L47.8209 150.36C47.5903 149.267 48.2831 148.178 49.3997 147.88L56.7047 145.932L56.9298 146.995C57.036 147.494 56.7555 148 56.2653 148.193L54.5515 148.872L59.5274 172.369L57.4591 173.61C55.7312 174.647 53.5115 174.402 52.1043 173.02L37.7246 158.889L41.0485 174.587L44.5387 174.515L44.5581 174.837C44.6182 175.842 43.9324 176.758 42.9246 177.02L34.661 179.165C34.3292 178.14 34.9161 177.036 35.9747 176.691L37.0476 176.342L32.6159 155.413L29.7249 155.859L29.7259 155.86Z" fill="#1E1E1E"/>
<path fill-rule="evenodd" clip-rule="evenodd" d="M44.7774 129.407L11.8176 138.798C9.843 139.361 8.63097 141.301 9.04269 143.242L15.9327 175.777C16.3242 177.609 17.3299 179.252 18.7833 180.434L27.8973 187.885C29.3706 189.091 31.3746 189.5 33.2479 188.98L69.883 178.805C71.7602 178.284 72.9182 176.443 72.5274 174.6L64.6943 137.613C64.4527 136.473 63.652 135.527 62.5463 135.079L49.1141 129.632C47.734 129.076 46.2078 128.997 44.7774 129.407ZM14.3646 142.643C13.8265 142.397 13.896 141.632 14.4713 141.466L45.6597 132.462C46.6486 132.175 47.7064 132.24 48.653 132.645L55.961 135.798C56.2383 135.916 56.2031 136.31 55.908 136.39L22.7571 145.342C21.759 145.614 20.6975 145.53 19.7551 145.103L14.3646 142.643ZM22.3949 151.396C22.1641 150.306 22.8541 149.219 23.966 148.919L59.0163 139.45C60.101 139.157 61.2027 139.804 61.4276 140.867L68.2099 172.894C68.4411 173.982 67.7542 175.067 66.6443 175.369L31.8333 184.864C30.6271 185.193 29.3989 184.474 29.1494 183.293L22.3949 151.396Z" fill="#1E1E1E"/>
</g>
</g>
</g>
<g clip-path="url(#clip8_2_1903)">
<g clip-path="url(#clip9_2_1903)">
<path d="M66.2796 72.0534C57.67 72.9583 50.6905 73.6919 50.6905 73.6919L43.7916 8.05347C43.7916 8.05347 50.7712 7.31989 59.3808 6.41499L93.8409 2.79309C102.451 1.8882 109.43 1.15462 109.43 1.15462L116.329 66.7931C116.329 66.7931 109.349 67.5266 100.74 68.4315L66.2796 72.0534Z" fill="#333333"/>
<path d="M67.3258 53.3638C66.9041 49.3519 69.8154 45.7579 73.8263 45.3363L81.0903 44.5729L81.8538 51.8369C82.1563 54.4475 81.0329 57.019 78.9126 58.5712C76.7912 60.1234 74.0006 60.4167 71.6028 59.3395C69.2061 58.2621 67.5726 55.9803 67.3258 53.3638Z" fill="url(#paint7_radial_2_1903)"/>
<path d="M78.0402 15.5153L79.567 30.0423L86.831 29.2788C89.4475 29.032 91.7293 27.3985 92.8077 25.0017C93.8849 22.6039 93.5916 19.8133 92.0394 17.6919C90.4863 15.5717 87.9147 14.4483 85.3041 14.7509L78.0401 15.5143L78.0402 15.5153Z" fill="#FF7262"/>
<path d="M64.2717 24.3057C64.6933 28.3176 68.2873 31.2289 72.2992 30.8072L79.5632 30.0438L78.0363 15.5158L70.7723 16.2793C66.7614 16.7008 63.85 20.2938 64.2717 24.3057Z" fill="#F24E1E"/>
<path d="M65.7986 38.8348C66.2203 42.8467 69.8152 45.7569 73.8261 45.3353L81.0901 44.5718L79.5631 30.0439L72.2991 30.8073C68.2872 31.229 65.377 34.8229 65.7986 38.8348Z" fill="#A259FF"/>
<path d="M80.3306 37.3073C80.028 34.6966 81.1514 32.1251 83.2718 30.573C85.3921 29.0209 88.1838 28.7275 90.5805 29.8048C92.9783 30.8821 94.6117 33.1639 94.8586 35.7804C95.2343 39.7669 92.3321 43.3127 88.35 43.7313C84.3679 44.1498 80.7909 41.285 80.3306 37.3073Z" fill="url(#paint8_radial_2_1903)"/>
</g>
</g>
</g>
<defs>
<filter id="filter0_df_2_1903" x="154.387" y="16.7294" width="60.3479" height="45.0164" filterUnits="userSpaceOnUse" color-interpolation-filters="sRGB">
<feFlood flood-opacity="0" result="BackgroundImageFix"/>
<feColorMatrix in="SourceAlpha" type="matrix" values="0 0 0 0 0 0 0 0 0 0 0 0 0 0 0 0 0 0 127 0" result="hardAlpha"/>
<feOffset dy="6.459"/>
<feGaussianBlur stdDeviation="4.404"/>
<feColorMatrix type="matrix" values="0 0 0 0 0 0 0 0 0 0 0 0 0 0 0 0 0 0 0.28 0"/>
<feBlend mode="normal" in2="BackgroundImageFix" result="effect1_dropShadow_2_1903"/>
<feBlend mode="normal" in="SourceGraphic" in2="effect1_dropShadow_2_1903" result="shape"/>
<feGaussianBlur stdDeviation="1.174" result="effect2_foregroundBlur_2_1903"/>
</filter>
<filter id="filter1_ii_2_1903" x="161.784" y="17.2843" width="45.5537" height="30.597" filterUnits="userSpaceOnUse" color-interpolation-filters="sRGB">
<feFlood flood-opacity="0" result="BackgroundImageFix"/>
<feBlend mode="normal" in="SourceGraphic" in2="BackgroundImageFix" result="shape"/>
<feColorMatrix in="SourceAlpha" type="matrix" values="0 0 0 0 0 0 0 0 0 0 0 0 0 0 0 0 0 0 127 0" result="hardAlpha"/>
<feOffset dy="1.174"/>
<feGaussianBlur stdDeviation="0.587"/>
<feComposite in2="hardAlpha" operator="arithmetic" k2="-1" k3="1"/>
<feColorMatrix type="matrix" values="0 0 0 0 1 0 0 0 0 1 0 0 0 0 1 0 0 0 1 0"/>
<feBlend mode="color-dodge" in2="shape" result="effect1_innerShadow_2_1903"/>
<feColorMatrix in="SourceAlpha" type="matrix" values="0 0 0 0 0 0 0 0 0 0 0 0 0 0 0 0 0 0 127 0" result="hardAlpha"/>
<feOffset dy="-0.881"/>
<feGaussianBlur stdDeviation="1.174"/>
<feComposite in2="hardAlpha" operator="arithmetic" k2="-1" k3="1"/>
<feColorMatrix type="matrix" values="0 0 0 0 0 0 0 0 0 0 0 0 0 0 0 0 0 0 0.2 0"/>
<feBlend mode="normal" in2="effect1_innerShadow_2_1903" result="effect2_innerShadow_2_1903"/>
</filter>
<filter id="filter2_di_2_1903" x="188.572" y="28.9782" width="18.5132" height="18.6571" filterUnits="userSpaceOnUse" color-interpolation-filters="sRGB">
<feFlood flood-opacity="0" result="BackgroundImageFix"/>
<feColorMatrix in="SourceAlpha" type="matrix" values="0 0 0 0 0 0 0 0 0 0 0 0 0 0 0 0 0 0 127 0" result="hardAlpha"/>
<feOffset dx="-0.147" dy="0.147"/>
<feGaussianBlur stdDeviation="0.147"/>
<feColorMatrix type="matrix" values="0 0 0 0 1 0 0 0 0 1 0 0 0 0 1 0 0 0 0.25 0"/>
<feBlend mode="normal" in2="BackgroundImageFix" result="effect1_dropShadow_2_1903"/>
<feBlend mode="normal" in="SourceGraphic" in2="effect1_dropShadow_2_1903" result="shape"/>
<feColorMatrix in="SourceAlpha" type="matrix" values="0 0 0 0 0 0 0 0 0 0 0 0 0 0 0 0 0 0 127 0" result="hardAlpha"/>
<feOffset dx="-0.294" dy="0.587"/>
<feGaussianBlur stdDeviation="0.294"/>
<feComposite in2="hardAlpha" operator="arithmetic" k2="-1" k3="1"/>
<feColorMatrix type="matrix" values="0 0 0 0 0 0 0 0 0 0 0 0 0 0 0 0 0 0 0.04 0"/>
<feBlend mode="normal" in2="shape" result="effect2_innerShadow_2_1903"/>
</filter>
<filter id="filter3_di_2_1903" x="161.741" y="28.9785" width="18.5133" height="18.6569" filterUnits="userSpaceOnUse" color-interpolation-filters="sRGB">
<feFlood flood-opacity="0" result="BackgroundImageFix"/>
<feColorMatrix in="SourceAlpha" type="matrix" values="0 0 0 0 0 0 0 0 0 0 0 0 0 0 0 0 0 0 127 0" result="hardAlpha"/>
<feOffset dx="-0.147" dy="0.147"/>
<feGaussianBlur stdDeviation="0.147"/>
<feColorMatrix type="matrix" values="0 0 0 0 1 0 0 0 0 1 0 0 0 0 1 0 0 0 0.25 0"/>
<feBlend mode="normal" in2="BackgroundImageFix" result="effect1_dropShadow_2_1903"/>
<feBlend mode="normal" in="SourceGraphic" in2="effect1_dropShadow_2_1903" result="shape"/>
<feColorMatrix in="SourceAlpha" type="matrix" values="0 0 0 0 0 0 0 0 0 0 0 0 0 0 0 0 0 0 127 0" result="hardAlpha"/>
<feOffset dx="-0.294" dy="0.587"/>
<feGaussianBlur stdDeviation="0.294"/>
<feComposite in2="hardAlpha" operator="arithmetic" k2="-1" k3="1"/>
<feColorMatrix type="matrix" values="0 0 0 0 0 0 0 0 0 0 0 0 0 0 0 0 0 0 0.04 0"/>
<feBlend mode="normal" in2="shape" result="effect2_innerShadow_2_1903"/>
</filter>
<filter id="filter4_df_2_1903" x="165.78" y="13.5332" width="37.9036" height="32.7654" filterUnits="userSpaceOnUse" color-interpolation-filters="sRGB">
<feFlood flood-opacity="0" result="BackgroundImageFix"/>
<feColorMatrix in="SourceAlpha" type="matrix" values="0 0 0 0 0 0 0 0 0 0 0 0 0 0 0 0 0 0 127 0" result="hardAlpha"/>
<feOffset dy="1.761"/>
<feGaussianBlur stdDeviation="4.11"/>
<feColorMatrix type="matrix" values="0 0 0 0 0 0 0 0 0 0 0 0 0 0 0 0 0 0 0.2 0"/>
<feBlend mode="normal" in2="BackgroundImageFix" result="effect1_dropShadow_2_1903"/>
<feBlend mode="normal" in="SourceGraphic" in2="effect1_dropShadow_2_1903" result="shape"/>
<feGaussianBlur stdDeviation="1.468" result="effect2_foregroundBlur_2_1903"/>
</filter>
<filter id="filter5_df_2_1903" x="165.78" y="14.9028" width="37.9036" height="32.7664" filterUnits="userSpaceOnUse" color-interpolation-filters="sRGB">
<feFlood flood-opacity="0" result="BackgroundImageFix"/>
<feColorMatrix in="SourceAlpha" type="matrix" values="0 0 0 0 0 0 0 0 0 0 0 0 0 0 0 0 0 0 127 0" result="hardAlpha"/>
<feOffset dy="1.761"/>
<feGaussianBlur stdDeviation="4.11"/>
<feColorMatrix type="matrix" values="0 0 0 0 0 0 0 0 0 0 0 0 0 0 0 0 0 0 0.2 0"/>
<feBlend mode="normal" in2="BackgroundImageFix" result="effect1_dropShadow_2_1903"/>
<feBlend mode="normal" in="SourceGraphic" in2="effect1_dropShadow_2_1903" result="shape"/>
<feGaussianBlur stdDeviation="1.017" result="effect2_foregroundBlur_2_1903"/>
</filter>
<filter id="filter6_i_2_1903" x="162.126" y="17.9038" width="44.7542" height="20.4119" filterUnits="userSpaceOnUse" color-interpolation-filters="sRGB">
<feFlood flood-opacity="0" result="BackgroundImageFix"/>
<feBlend mode="normal" in="SourceGraphic" in2="BackgroundImageFix" result="shape"/>
<feColorMatrix in="SourceAlpha" type="matrix" values="0 0 0 0 0 0 0 0 0 0 0 0 0 0 0 0 0 0 127 0" result="hardAlpha"/>
<feOffset dy="-0.147"/>
<feGaussianBlur stdDeviation="0.44"/>
<feComposite in2="hardAlpha" operator="arithmetic" k2="-1" k3="1"/>
<feColorMatrix type="matrix" values="0 0 0 0 0 0 0 0 0 0 0 0 0 0 0 0 0 0 0.2 0"/>
<feBlend mode="normal" in2="shape" result="effect1_innerShadow_2_1903"/>
</filter>
<filter id="filter7_i_2_1903" x="162.24" y="17.186" width="44.4119" height="19.8746" filterUnits="userSpaceOnUse" color-interpolation-filters="sRGB">
<feFlood flood-opacity="0" result="BackgroundImageFix"/>
<feBlend mode="normal" in="SourceGraphic" in2="BackgroundImageFix" result="shape"/>
<feColorMatrix in="SourceAlpha" type="matrix" values="0 0 0 0 0 0 0 0 0 0 0 0 0 0 0 0 0 0 127 0" result="hardAlpha"/>
<feOffset dy="-0.294"/>
<feGaussianBlur stdDeviation="0.294"/>
<feComposite in2="hardAlpha" operator="arithmetic" k2="-1" k3="1"/>
<feColorMatrix type="matrix" values="0 0 0 0 1 0 0 0 0 1 0 0 0 0 1 0 0 0 0.8 0"/>
<feBlend mode="normal" in2="shape" result="effect1_innerShadow_2_1903"/>
</filter>
<linearGradient id="paint0_linear_2_1903" x1="184.56" y1="1.38232" x2="184.56" y2="63.6045" gradientUnits="userSpaceOnUse">
<stop stop-color="#3486F4"/>
<stop offset="1" stop-color="#2AD1FB"/>
</linearGradient>
<linearGradient id="paint1_linear_2_1903" x1="184.56" y1="18.1653" x2="184.56" y2="46.7074" gradientUnits="userSpaceOnUse">
<stop stop-color="white"/>
<stop offset="0.544" stop-color="#F9F7FA"/>
<stop offset="0.77" stop-color="#F7F7F7"/>
<stop offset="1" stop-color="#E6E6E6"/>
</linearGradient>
<radialGradient id="paint2_radial_2_1903" cx="0" cy="0" r="1" gradientUnits="userSpaceOnUse" gradientTransform="translate(184.56 26.094) rotate(90) scale(20.6139 32.8998)">
<stop offset="0.479" stop-color="white"/>
<stop offset="1"/>
</radialGradient>
<linearGradient id="paint3_linear_2_1903" x1="191.794" y1="31.9058" x2="206.41" y2="46.5202" gradientUnits="userSpaceOnUse">
<stop stop-color="#B6B6B6"/>
<stop offset="0.324" stop-color="#AFAFAF"/>
<stop offset="1" stop-color="#B7B7B7"/>
</linearGradient>
<linearGradient id="paint4_linear_2_1903" x1="177.326" y1="31.906" x2="162.712" y2="46.5225" gradientUnits="userSpaceOnUse">
<stop stop-color="#B6B6B6"/>
<stop offset="0.324" stop-color="#AFAFAF"/>
<stop offset="1" stop-color="#B7B7B7"/>
</linearGradient>
<linearGradient id="paint5_linear_2_1903" x1="184.446" y1="18.9639" x2="184.446" y2="38.4869" gradientUnits="userSpaceOnUse">
<stop stop-color="#E0E4E7"/>
<stop offset="1" stop-color="#CDCBCC"/>
</linearGradient>
<linearGradient id="paint6_linear_2_1903" x1="184.446" y1="17.48" x2="184.446" y2="37.003" gradientUnits="userSpaceOnUse">
<stop stop-color="#FCFDFF"/>
<stop offset="1" stop-color="#F7F5F8"/>
</linearGradient>
<radialGradient id="paint7_radial_2_1903" cx="0" cy="0" r="1" gradientUnits="userSpaceOnUse" gradientTransform="translate(97.3599 90.6458) rotate(-5.99997) scale(7.26602 7.30415)">
<stop stop-color="#0ACF83"/>
<stop offset="1" stop-color="#4DCF89"/>
</radialGradient>
<radialGradient id="paint8_radial_2_1903" cx="0" cy="0" r="1" gradientUnits="userSpaceOnUse" gradientTransform="translate(121.549 56.6624) rotate(-5.99997) scale(9.41597 9.41575)">
<stop stop-color="#5ACFFF"/>
<stop offset="1" stop-color="#1ABCFE"/>
</radialGradient>
<clipPath id="clip0_2_1903">
<rect width="284" height="743" fill="white" transform="translate(0.0602417 0.42334)"/>
</clipPath>
<clipPath id="clip1_2_1903">
<path d="M125.06 297.013C125.06 279.34 139.387 265.013 157.06 265.013C174.733 265.013 189.06 279.34 189.06 297.013C189.06 314.686 174.733 329.013 157.06 329.013C139.387 329.013 125.06 314.686 125.06 297.013Z" fill="white"/>
</clipPath>
<clipPath id="clip2_2_1903">
<rect width="64" height="64" fill="white" transform="translate(125.06 277.543)"/>
</clipPath>
<clipPath id="clip3_2_1903">
<rect width="63" height="63" fill="white" transform="translate(153.06 0.993408)"/>
</clipPath>
<clipPath id="clip4_2_1903">
<rect width="63" height="63" fill="white" transform="translate(153.06 0.993408)"/>
</clipPath>
<clipPath id="clip5_2_1903">
<rect width="63" height="63" fill="white" transform="translate(153.06 0.993408)"/>
</clipPath>
<clipPath id="clip6_2_1903">
<rect width="66" height="66" fill="white" transform="translate(0.920288 133.576) rotate(-12)"/>
</clipPath>
<clipPath id="clip7_2_1903">
<rect width="66" height="66" fill="white" transform="translate(0.920288 133.576) rotate(-12)"/>
</clipPath>
<clipPath id="clip8_2_1903">
<path d="M45.8822 27.9439C44.7276 16.9587 52.6969 7.11749 63.6821 5.96291L89.5396 3.24518C100.525 2.09059 110.366 10.0599 111.521 21.0451L114.238 46.9026C115.393 57.8878 107.424 67.729 96.4385 68.8836L70.5809 71.6014C59.5957 72.7559 49.7545 64.7867 48.5999 53.8015L45.8822 27.9439Z" fill="white"/>
</clipPath>
<clipPath id="clip9_2_1903">
<rect width="66" height="66" fill="white" transform="translate(43.7916 8.05347) rotate(-5.99997)"/>
</clipPath>
</defs>
</svg>
