<svg width="53" height="53" viewBox="0 0 53 53" fill="none" xmlns="http://www.w3.org/2000/svg">
<g clip-path="url(#clip0_2_1571)">
<path d="M21.5 22.9531C21.5 22.4011 21.948 21.9531 22.5 21.9531H30.5C31.052 21.9531 31.5 22.4011 31.5 22.9531V30.9531C31.5 31.5051 31.052 31.9531 30.5 31.9531H22.5C21.948 31.9531 21.5 31.5051 21.5 30.9531V22.9531Z" fill="#F7F7F7"/>
<path d="M0.5 1.95312C0.5 1.40113 0.948 0.953125 1.5 0.953125H20.5C21.052 0.953125 21.5 1.40113 21.5 1.95312V9.95312C21.5 10.5051 21.052 10.9531 20.5 10.9531H11.5C10.948 10.9531 10.5 11.4011 10.5 11.9531V20.9531C10.5 21.5051 10.052 21.9531 9.5 21.9531H1.5C0.948 21.9531 0.5 21.5051 0.5 20.9531V1.95312ZM0.5 51.9531C0.5 52.5051 0.948 52.9531 1.5 52.9531H20.5C21.052 52.9531 21.5 52.5051 21.5 51.9531V43.9531C21.5 43.4011 21.052 42.9531 20.5 42.9531H11.5C10.948 42.9531 10.5 42.5051 10.5 41.9531V32.9531C10.5 32.4011 10.052 31.9531 9.5 31.9531H1.5C0.948 31.9531 0.5 32.4011 0.5 32.9531V51.9531ZM52.5 1.95312C52.5 1.40113 52.052 0.953125 51.5 0.953125H32.5C31.948 0.953125 31.5 1.40113 31.5 1.95312V9.95312C31.5 10.5051 31.948 10.9531 32.5 10.9531H41.5C42.052 10.9531 42.5 11.4011 42.5 11.9531V20.9531C42.5 21.5051 42.948 21.9531 43.5 21.9531H51.5C52.052 21.9531 52.5 21.5051 52.5 20.9531V1.95312ZM52.5 51.9531C52.5 52.5051 52.052 52.9531 51.5 52.9531H32.5C31.948 52.9531 31.5 52.5051 31.5 51.9531V43.9531C31.5 43.4011 31.948 42.9531 32.5 42.9531H41.5C42.052 42.9531 42.5 42.5051 42.5 41.9531V32.9531C42.5 32.4011 42.948 31.9531 43.5 31.9531H51.5C52.052 31.9531 52.5 32.4011 52.5 32.9531V51.9531Z" fill="#F7F7F7"/>
</g>
<defs>
<clipPath id="clip0_2_1571">
<rect width="52" height="52" fill="white" transform="translate(0.5 0.953125)"/>
</clipPath>
</defs>
</svg>
