<svg width="236" height="722" viewBox="0 0 236 722" fill="none" xmlns="http://www.w3.org/2000/svg">
<g clip-path="url(#clip0_2_1973)">
<g clip-path="url(#clip1_2_1973)">
<g clip-path="url(#clip2_2_1973)">
<g clip-path="url(#clip3_2_1973)">
<path d="M71.9363 649.907L41.9257 642.978C38.3741 642.158 34.8302 644.373 34.0102 647.924L27.0817 677.935C26.2617 681.487 28.4762 685.03 32.0279 685.85L62.0385 692.779C65.5901 693.599 69.134 691.384 69.954 687.833L76.8825 657.822C77.7024 654.27 75.488 650.727 71.9363 649.907Z" fill="white"/>
<path d="M71.0866 654.508L40.5401 647.456C39.6522 647.251 38.7662 647.805 38.5612 648.693L31.509 679.239C31.304 680.127 31.8576 681.013 32.7455 681.218L63.292 688.27C64.1799 688.475 65.0659 687.922 65.2709 687.034L72.3231 656.487C72.5281 655.599 71.9745 654.713 71.0866 654.508Z" fill="white"/>
<mask id="mask0_2_1973" style="mask-type:luminance" maskUnits="userSpaceOnUse" x="37" y="655" width="30" height="26">
<path d="M42.0854 655.433L66.2011 661.001L61.7471 680.293L37.6314 674.726L42.0854 655.433Z" fill="white"/>
</mask>
<g mask="url(#mask0_2_1973)">
<path d="M64.8959 666.654L61.4082 665.849L58.2595 679.487L61.7471 680.293L64.8959 666.654Z" fill="black"/>
<path d="M46.7838 660.278C47.9076 660.537 48.6012 661.692 48.3381 662.831L51.8258 663.636C52.5448 660.522 50.6503 657.41 47.6079 656.708C44.5661 656.006 41.4992 657.972 40.7803 661.086L44.268 661.892C44.531 660.752 45.66 660.018 46.7838 660.278Z" fill="#FF4B4B"/>
<path d="M45.1893 676.471L48.6769 677.276L51.8258 663.636L48.3381 662.831L45.1893 676.471Z" fill="#5887FF"/>
<path d="M54.1918 678.538L55.0135 674.978L49.5012 673.706L48.677 677.276L54.1918 678.538Z" fill="#FFAA00"/>
<path d="M57.3375 664.909C57.603 663.759 58.7408 663.038 59.8539 663.295L60.678 659.726C57.6357 659.023 54.5693 660.99 53.8504 664.104L51.5256 674.174L55.0127 674.979L57.3375 664.909Z" fill="#00843F"/>
<path d="M61.4089 665.849L64.8966 666.654C65.6155 663.54 63.721 660.428 60.6787 659.726L59.8546 663.295C60.9784 663.555 61.6744 664.699 61.4089 665.849Z" fill="#FC83FF"/>
<path d="M44.2679 661.892L40.7803 661.086L37.6315 674.725L41.1192 675.53L44.2679 661.892Z" fill="black"/>
</g>
</g>
</g>
</g>
<g clip-path="url(#clip4_2_1973)">
<g clip-path="url(#clip5_2_1973)">
<g clip-path="url(#clip6_2_1973)">
<path d="M233.058 319.287L191.33 308.106C190.05 307.763 188.734 308.523 188.391 309.803L177.21 351.531C176.867 352.811 177.626 354.127 178.907 354.47L220.635 365.651C221.915 365.994 223.231 365.234 223.574 363.954L234.755 322.226C235.098 320.946 234.338 319.63 233.058 319.287Z" fill="#FFD02F"/>
<path fill-rule="evenodd" clip-rule="evenodd" d="M214.666 326.847L211.316 325.949L212.793 331.603L207.966 325.052L204.615 324.154L206.079 330.973L201.265 323.256L197.915 322.359L199.22 330.887L191.781 345.252L195.13 346.149L205.934 331.517L198.481 347.047L201.831 347.945L212.648 332.148L205.182 348.842L208.532 349.74L219.785 332.309L214.666 326.848L214.666 326.847Z" fill="#050038"/>
</g>
</g>
</g>
<g clip-path="url(#clip7_2_1973)">
<path fill-rule="evenodd" clip-rule="evenodd" d="M141.418 493.323H128.707C127.443 493.323 126.231 493.825 125.337 494.719C124.443 495.613 123.941 496.825 123.941 498.09C123.941 499.354 124.443 500.566 125.337 501.46C126.231 502.354 127.443 502.856 128.707 502.856H141.418C142.682 502.856 143.895 502.354 144.789 501.46C145.683 500.566 146.185 499.353 146.185 498.089C146.185 496.825 145.683 495.612 144.789 494.718C143.895 493.824 142.682 493.322 141.418 493.322V493.323Z" fill="#36C5F0"/>
<path fill-rule="evenodd" clip-rule="evenodd" d="M158.903 498.087V485.376C158.903 484.112 158.401 482.9 157.507 482.006C156.613 481.112 155.401 480.61 154.136 480.61C152.872 480.61 151.66 481.112 150.766 482.006C149.872 482.9 149.37 484.112 149.37 485.376V498.087C149.37 499.351 149.872 500.564 150.766 501.458C151.66 502.351 152.872 502.854 154.136 502.854C155.401 502.854 156.613 502.351 157.507 501.458C158.401 500.564 158.903 499.351 158.903 498.087Z" fill="#2EB67D"/>
<path fill-rule="evenodd" clip-rule="evenodd" d="M154.136 515.562H166.847C168.111 515.562 169.323 515.059 170.217 514.166C171.111 513.272 171.613 512.059 171.613 510.795C171.613 509.531 171.111 508.319 170.217 507.425C169.323 506.531 168.111 506.029 166.847 506.029H154.136C152.872 506.029 151.659 506.531 150.765 507.425C149.872 508.319 149.369 509.531 149.369 510.795C149.369 512.059 149.872 513.272 150.765 514.166C151.659 515.059 152.872 515.562 154.136 515.562Z" fill="#ECB22E"/>
<path fill-rule="evenodd" clip-rule="evenodd" d="M136.654 510.796V523.506C136.654 524.131 136.777 524.751 137.017 525.33C137.256 525.908 137.608 526.433 138.05 526.876C138.493 527.319 139.018 527.67 139.597 527.909C140.175 528.149 140.795 528.272 141.421 528.272C142.047 528.272 142.666 528.149 143.245 527.909C143.823 527.67 144.348 527.319 144.791 526.876C145.234 526.433 145.585 525.908 145.824 525.33C146.064 524.751 146.187 524.131 146.187 523.506V510.795C146.187 510.169 146.064 509.549 145.824 508.971C145.585 508.392 145.234 507.867 144.791 507.424C144.348 506.982 143.823 506.631 143.245 506.391C142.666 506.152 142.047 506.028 141.421 506.028C140.795 506.028 140.175 506.152 139.597 506.391C139.018 506.631 138.493 506.982 138.05 507.424C137.608 507.867 137.256 508.392 137.017 508.971C136.777 509.549 136.654 510.17 136.654 510.796Z" fill="#E01E5A"/>
<path fill-rule="evenodd" clip-rule="evenodd" d="M141.421 480.609C140.157 480.609 138.944 481.112 138.05 482.006C137.156 482.9 136.654 484.112 136.654 485.376C136.654 486.641 137.156 487.853 138.05 488.747C138.944 489.641 140.157 490.143 141.421 490.143H146.187V485.376C146.187 484.75 146.064 484.13 145.824 483.552C145.585 482.974 145.234 482.448 144.791 482.006C144.348 481.563 143.823 481.212 143.244 480.973C142.666 480.733 142.046 480.61 141.42 480.61L141.421 480.609Z" fill="#36C5F0"/>
<path fill-rule="evenodd" clip-rule="evenodd" d="M171.607 498.089C171.607 496.825 171.105 495.613 170.211 494.719C169.317 493.825 168.105 493.323 166.841 493.323C165.577 493.323 164.365 493.825 163.471 494.719C162.577 495.613 162.075 496.825 162.075 498.089V502.856H166.841C167.467 502.856 168.087 502.733 168.665 502.493C169.243 502.254 169.769 501.902 170.211 501.46C170.654 501.017 171.005 500.492 171.244 499.913C171.484 499.335 171.607 498.715 171.607 498.089Z" fill="#2EB67D"/>
<path fill-rule="evenodd" clip-rule="evenodd" d="M154.136 528.274C155.4 528.274 156.613 527.772 157.506 526.878C158.4 525.985 158.903 524.772 158.903 523.508C158.903 522.244 158.4 521.031 157.506 520.138C156.613 519.244 155.4 518.741 154.136 518.741H149.37V523.508C149.37 524.772 149.872 525.985 150.766 526.879C151.66 527.772 152.872 528.274 154.136 528.274Z" fill="#ECB22E"/>
<path fill-rule="evenodd" clip-rule="evenodd" d="M123.941 510.795C123.941 512.06 124.443 513.272 125.337 514.166C126.231 515.06 127.444 515.562 128.708 515.562C129.972 515.562 131.184 515.06 132.078 514.166C132.972 513.272 133.474 512.06 133.474 510.795V506.028H128.707C128.081 506.028 127.462 506.151 126.883 506.391C126.305 506.63 125.779 506.981 125.337 507.424C124.894 507.867 124.543 508.392 124.304 508.971C124.064 509.549 123.941 510.169 123.941 510.795Z" fill="#E01E5A"/>
</g>
<g clip-path="url(#clip8_2_1973)">
<g clip-path="url(#clip9_2_1973)">
<path d="M87.5112 165.815C84.5382 148.955 68.4598 137.696 51.5991 140.669C34.7384 143.642 23.4802 159.721 26.4532 176.582C29.4262 193.442 45.5046 204.7 62.3653 201.727C79.226 198.754 90.4842 182.676 87.5112 165.815Z" fill="#333333"/>
<mask id="mask1_2_1973" style="mask-type:luminance" maskUnits="userSpaceOnUse" x="30" y="144" width="54" height="55">
<path d="M30.0481 152.339L75.8417 144.264L83.9163 190.058L38.1227 198.132L30.0481 152.339Z" fill="white"/>
</mask>
<g mask="url(#mask1_2_1973)">
<path d="M53.9543 154.026C44.4712 155.698 38.1717 164.936 39.8864 174.661C41.258 182.44 47.3424 188.173 54.5761 189.298C55.4628 189.31 55.6819 188.709 55.5998 188.244C55.5258 187.824 55.266 186.44 54.999 184.97C50.409 186.877 48.8474 183.913 48.8474 183.913C47.707 182.015 46.4858 181.673 46.4858 181.673C44.7353 180.854 46.4147 180.582 46.4147 180.582C48.1614 180.401 49.3677 181.932 49.3677 181.932C51.3734 184.354 53.7219 183.137 54.6226 182.515C54.5762 181.349 54.884 180.493 55.2974 179.968C51.4049 180.195 47.1287 179.392 45.9392 172.646C45.6002 170.723 45.9941 169.034 46.8749 167.607C46.6191 167.196 45.7155 165.508 46.2197 162.918C46.2197 162.918 47.5788 162.191 51.2624 163.89C52.5927 163.253 54.0033 162.799 55.4557 162.54C56.9104 162.286 58.3927 162.231 59.8624 162.374C62.738 159.518 64.2616 159.737 64.2616 159.737C65.6243 161.998 65.3517 163.893 65.2511 164.367C66.5699 165.406 67.5132 166.859 67.8522 168.782C69.0446 175.544 65.2903 177.741 61.5435 178.852C62.2549 179.289 62.9935 180.265 63.2831 181.907C63.6984 184.263 64.0128 186.162 64.1151 186.742C64.1977 187.211 64.603 187.706 65.4433 187.379C71.8517 183.846 75.6029 176.383 74.2316 168.605C72.5168 158.88 63.4382 152.353 53.9543 154.026ZM47.6361 181.002C47.6134 181.096 47.4845 181.146 47.3509 181.107C47.2164 181.072 47.1259 180.965 47.1509 180.87C47.1717 180.773 47.3017 180.725 47.4366 180.763C47.5711 180.798 47.6641 180.906 47.6361 181.002ZM48.6173 181.626C48.5493 181.718 48.3826 181.71 48.2518 181.606C48.1181 181.504 48.0684 181.342 48.1368 181.248C48.2079 181.156 48.3701 181.166 48.5038 181.268C48.638 181.373 48.6889 181.532 48.6173 181.626ZM49.3716 182.512C49.2787 182.605 49.0946 182.565 48.9609 182.428C48.828 182.29 48.7949 182.102 48.8884 182.008C48.9821 181.914 49.1634 181.951 49.2984 182.088C49.4319 182.229 49.465 182.417 49.3708 182.512L49.3716 182.512ZM50.5527 183.484C50.4776 183.607 50.2719 183.615 50.0997 183.495C49.9243 183.379 49.8468 183.185 49.9226 183.062C49.9993 182.939 50.2068 182.933 50.3797 183.052C50.5534 183.167 50.6347 183.36 50.5527 183.484ZM51.8879 183.648C51.8701 183.792 51.6882 183.89 51.4832 183.865C51.2787 183.839 51.1236 183.7 51.1372 183.554C51.1539 183.408 51.3362 183.308 51.5435 183.337C51.7478 183.362 51.9028 183.5 51.8879 183.648ZM53.3578 183.558C53.3887 183.702 53.2443 183.851 53.041 183.89C52.8366 183.931 52.6495 183.843 52.6219 183.7C52.5961 183.553 52.7369 183.406 52.9407 183.366C53.1446 183.326 53.3323 183.413 53.3578 183.558ZM54.7645 183.252C54.814 183.39 54.6976 183.56 54.5014 183.634C54.3097 183.708 54.1086 183.652 54.0587 183.516C54.0087 183.375 54.1274 183.205 54.3198 183.131C54.5165 183.06 54.7131 183.112 54.7645 183.252Z" fill="white"/>
</g>
</g>
</g>
</g>
<defs>
<clipPath id="clip0_2_1973">
<rect width="235" height="772" fill="white" transform="translate(0.982178 -50.8015)"/>
</clipPath>
<clipPath id="clip1_2_1973">
<rect width="44" height="44" fill="white" transform="translate(35.4949 641.493) rotate(13)"/>
</clipPath>
<clipPath id="clip2_2_1973">
<rect width="44" height="44" fill="white" transform="translate(35.4949 641.493) rotate(13)"/>
</clipPath>
<clipPath id="clip3_2_1973">
<rect width="44" height="44" fill="white" transform="translate(35.4949 641.493) rotate(13)"/>
</clipPath>
<clipPath id="clip4_2_1973">
<rect width="48" height="48" fill="white" transform="translate(189.012 307.485) rotate(15)"/>
</clipPath>
<clipPath id="clip5_2_1973">
<rect width="48" height="48" fill="white" transform="translate(189.012 307.485) rotate(15)"/>
</clipPath>
<clipPath id="clip6_2_1973">
<rect width="48" height="48" fill="white" transform="translate(189.012 307.485) rotate(15)"/>
</clipPath>
<clipPath id="clip7_2_1973">
<rect width="58" height="58" fill="white" transform="translate(118.982 475.128)"/>
</clipPath>
<clipPath id="clip8_2_1973">
<rect width="62" height="62" fill="white" transform="translate(21.0701 146.052) rotate(-9.99999)"/>
</clipPath>
<clipPath id="clip9_2_1973">
<rect width="62" height="62" fill="white" transform="translate(21.0701 146.052) rotate(-9.99999)"/>
</clipPath>
</defs>
</svg>
