<svg width="179" height="34" viewBox="0 0 179 34" fill="none" xmlns="http://www.w3.org/2000/svg">
<g clip-path="url(#clip0_2_1612)">
<path d="M21.8521 28.0501C22.1491 26.3481 21.5141 24.6031 20.2011 23.4121C19.2381 22.5391 17.9861 22.0541 16.6861 22.0501C15.9221 22.0531 15.1681 21.8781 14.4831 21.5401C13.6061 21.0771 12.8851 20.3661 12.4081 19.4971C12.6651 18.8021 12.7941 18.0671 12.7901 17.3271C12.7901 19.4541 14.5261 21.1571 16.6431 21.1571H16.7281C18.8211 21.1281 20.5021 19.4211 20.4981 17.3271C20.4981 16.5611 20.6241 15.8371 20.8781 15.1571C21.3021 14.0921 22.0221 13.1141 22.9541 12.4331C24.0971 11.5821 25.5371 11.1561 26.9341 11.1991C25.9181 9.53914 24.5211 8.09214 22.7841 7.11414V7.41214C22.7861 8.73314 22.3541 10.0191 21.5561 11.0721C21.3231 10.8731 21.0671 10.7011 20.7941 10.5611C21.5141 9.66714 21.8521 8.56114 21.8521 7.45414C21.8521 6.77414 21.7251 6.13514 21.4721 5.49714C20.6711 3.59914 18.8301 2.34914 16.7701 2.30514H16.5161C15.2041 2.30514 13.9331 2.47514 12.7051 2.81514C7.45306 4.22014 3.34506 8.26314 1.94806 13.4551C1.05806 14.5181 0.508057 15.8371 0.508057 17.1991C0.593057 8.51814 7.70806 1.45314 16.5161 1.36914H16.9401C25.7061 1.49714 32.7791 8.51814 32.8641 17.1991V17.5391C32.8241 18.9151 32.3161 20.2361 31.4241 21.2841C30.5771 22.2631 29.4341 22.9861 28.1631 23.2841C27.6971 23.4121 27.1891 23.4541 26.7231 23.4541C25.3931 23.4561 24.0991 23.0221 23.0381 22.2201C22.6581 22.7301 22.1911 23.1561 21.6831 23.5821C22.5301 24.6881 22.9961 26.1351 22.9111 27.5391C24.6101 26.5401 26.0361 25.1371 27.0611 23.4541C27.4431 23.4121 27.8241 23.3691 28.2051 23.2841C26.9771 25.5821 25.0711 27.4541 22.7421 28.6881C20.8931 29.6351 18.8471 30.1311 16.7701 30.1351C15.8671 30.1371 15.0111 29.7301 14.4411 29.0291C14.0581 28.5281 13.8501 27.9151 13.8481 27.2841C13.8481 26.4331 14.2721 25.6241 14.8651 25.0711C15.4911 25.2101 16.1291 25.2811 16.7701 25.2841C15.6701 25.2841 14.7381 26.1771 14.7381 27.2841C14.7381 28.3901 15.6271 29.2841 16.7701 29.2841H16.8131C17.9131 29.2841 18.8461 28.3901 18.8461 27.2841C18.8461 26.1771 17.9561 25.2841 16.8131 25.2841C15.3311 25.2841 13.8911 24.8581 12.6201 24.1351C12.3661 23.9651 12.0701 23.7951 11.8581 23.6251C11.3411 23.2261 10.8721 22.7691 10.4601 22.2631C10.7141 22.0931 10.9261 21.8801 11.1801 21.6671C11.7521 22.4171 12.4731 23.0401 13.2981 23.4971C14.3711 24.1031 15.5811 24.4251 16.8131 24.4331C17.5331 24.4331 18.2101 24.6881 18.7191 25.1131C19.3541 25.6241 19.7351 26.4331 19.7351 27.3261C19.7331 27.9571 19.5251 28.5701 19.1421 29.0711C20.1071 28.8681 21.0451 28.5541 21.9371 28.1351L21.8521 28.0501ZM28.4591 15.0711C28.2891 14.0921 27.9511 13.1561 27.5281 12.2631C26.0881 12.0501 24.6481 12.3901 23.5471 13.2411C22.2421 14.2121 21.4721 15.7421 21.4711 17.3691C21.4711 18.1351 21.3011 18.8591 20.9211 19.5391C20.4971 20.3901 19.7351 21.1141 18.8881 21.5821C19.6741 21.8781 20.3931 22.3261 21.0051 22.9011C21.7311 22.3361 22.3481 21.6441 22.8271 20.8581C23.4621 19.7941 23.7581 18.6031 23.7581 17.3691C23.7581 16.6461 24.0121 16.0071 24.4781 15.4971C25.0291 14.8531 25.8331 14.4801 26.6801 14.4751C27.3161 14.4751 27.9501 14.6881 28.4591 15.0711ZM28.6711 17.2841C28.6291 16.2631 27.7391 15.4121 26.6381 15.3691C25.4951 15.3691 24.6051 16.2631 24.6051 17.3261V17.3691C24.6481 18.4331 25.5371 19.2841 26.6381 19.2841C27.7821 19.2841 28.6711 18.3901 28.6711 17.3271V17.2841ZM24.4781 19.2411C24.2661 20.0071 23.9701 20.8161 23.5471 21.4971C24.6901 22.3471 26.1301 22.7311 27.5271 22.4751C27.9091 22.4331 28.2901 22.3051 28.6711 22.1781C30.5771 21.4121 31.8901 19.5821 31.9311 17.5391V17.2841C31.9381 16.0011 31.7531 14.7251 31.3811 13.4971C29.9841 8.34714 25.8761 4.26314 20.6671 2.85814C21.6561 3.68814 22.3661 4.80314 22.6991 6.05014V6.09214C25.3931 7.49314 27.5071 9.79914 28.6711 12.6031C29.3061 14.0931 29.6031 15.7091 29.6031 17.4121C29.6031 18.3481 29.1791 19.1561 28.4591 19.7091C27.9461 20.0941 27.3221 20.3031 26.6801 20.3051C25.8321 20.2641 25.0371 19.8801 24.4781 19.2411ZM16.4321 33.3691C7.66506 33.2411 0.592057 26.2201 0.508057 17.5391V17.1991C0.550057 15.7951 1.05806 14.5191 1.94806 13.4551C2.79506 12.4761 3.93806 11.7941 5.20806 11.4541C5.67906 11.3351 6.16306 11.2781 6.64806 11.2841C7.96206 11.2841 9.27406 11.7091 10.3331 12.5181C10.7141 12.0081 11.1801 11.5821 11.6881 11.1561C10.8411 10.0501 10.3751 8.60314 10.4601 7.19914C8.76106 8.19814 7.33506 9.60114 6.31006 11.2841C5.92906 11.3271 5.54806 11.3691 5.16606 11.4541C6.39506 9.15614 8.30006 7.28414 10.6301 6.05014C12.4781 5.10314 14.5241 4.60814 16.6001 4.60314C17.5321 4.60314 18.3791 5.02914 18.9301 5.70914C19.3121 6.21014 19.5201 6.82314 19.5221 7.45414C19.5221 8.34814 19.0991 9.11414 18.5061 9.66714C17.8701 9.53914 17.2791 9.45314 16.6001 9.45314C17.7011 9.45314 18.6331 8.56014 18.6331 7.45314C18.6331 6.34714 17.7431 5.45314 16.6001 5.45314H16.5581C15.4571 5.45314 14.5251 6.34714 14.5251 7.45314C14.5251 8.56014 15.4151 9.45314 16.5581 9.45314C18.0401 9.45314 19.4801 9.87914 20.7501 10.6031C21.0051 10.7731 21.3001 10.9431 21.5131 11.1131C22.0211 11.5381 22.4871 11.9631 22.9101 12.4741C22.6561 12.6441 22.4441 12.8571 22.1901 13.0701C21.6181 12.3201 20.8981 11.6971 20.0731 11.2401C19.0001 10.6341 17.7901 10.3121 16.5581 10.3041C15.8801 10.3041 15.2021 10.0491 14.6521 9.62414C14.0101 9.06714 13.6391 8.26114 13.6351 7.41114C13.6351 6.73014 13.8901 6.13414 14.2281 5.66614C13.2541 5.87914 12.2801 6.17614 11.3911 6.60214C11.0951 8.30414 11.7301 10.0491 13.0431 11.2401C14.0061 12.1131 15.2581 12.5981 16.5581 12.6021C17.3201 12.6021 18.0821 12.7721 18.7601 13.1121C19.6371 13.5751 20.3581 14.2861 20.8351 15.1551C20.5811 15.8361 20.4121 16.5601 20.4541 17.3251C20.4541 15.1981 18.7181 13.4951 16.6001 13.4951H16.5581C14.4651 13.5241 12.7841 15.2311 12.7881 17.3251C12.7881 18.0911 12.6611 18.8151 12.4081 19.4951C11.9841 20.5601 11.2641 21.5381 10.3321 22.2191C9.18906 23.0701 7.74906 23.4961 6.35206 23.4531C7.36806 25.1131 8.76506 26.5601 10.5021 27.5381C10.4591 26.1341 10.8401 24.7301 11.7301 23.6231C11.9841 23.8361 12.2381 24.0061 12.4921 24.1341C11.7721 25.0281 11.4331 26.1341 11.4331 27.2401C11.4331 27.9211 11.5601 28.5601 11.8141 29.1981C12.6151 31.0951 14.4561 32.3451 16.5151 32.3891H16.7691C18.0821 32.3891 19.3531 32.2191 20.5811 31.8791C25.8321 30.4741 29.9411 26.4321 31.3381 21.2401C32.2281 20.1761 32.7781 18.8571 32.7781 17.4961C32.6931 26.1761 25.5781 33.2401 16.7691 33.3261H16.6001L16.4301 33.3681L16.4321 33.3691ZM12.6621 31.9221C11.6731 31.0921 10.9641 29.9781 10.6301 28.7311V28.6881C7.93706 27.2871 5.82206 24.9821 4.65806 22.1781C4.02306 20.6461 3.72606 19.0281 3.72606 17.3691C3.72606 16.4331 4.15006 15.6241 4.87006 15.0711C5.38006 14.6801 6.00606 14.4701 6.64906 14.4751C7.53806 14.4751 8.34306 14.9011 8.85106 15.4971C9.06306 14.6881 9.35906 13.9221 9.78306 13.2411C8.63906 12.3911 7.19906 12.0071 5.80206 12.2631C5.37806 12.3051 5.03906 12.4331 4.65806 12.5601C2.75206 13.3271 1.44006 15.1561 1.39806 17.1991V17.4531C1.39806 18.7301 1.56706 20.0061 1.94806 21.2401C3.38806 26.4321 7.45306 30.5181 12.6621 31.9221ZM5.84406 22.4751C7.28406 22.6881 8.72406 22.3481 9.82406 21.4971C11.1291 20.5261 11.8991 18.9961 11.9001 17.3691C11.9001 16.6031 12.0701 15.8791 12.4501 15.1991C12.8741 14.3481 13.6371 13.6241 14.4841 13.1561H14.4411C13.6551 12.8601 12.9361 12.4121 12.3241 11.8371C11.5981 12.4021 10.9811 13.0941 10.5021 13.8801C9.86706 14.9441 9.57106 16.1351 9.57106 17.3691C9.57806 18.0621 9.32106 18.7311 8.85106 19.2411C8.30006 19.8851 7.49606 20.2581 6.64906 20.2631C6.00606 20.2681 5.37906 20.0581 4.86906 19.6671C5.08206 20.6461 5.42006 21.5821 5.84406 22.4751ZM4.70106 17.4551C4.74306 18.4751 5.63206 19.3691 6.73306 19.3691C7.87706 19.3691 8.76606 18.4751 8.76606 17.4121V17.3691C8.72406 16.3051 7.83406 15.4541 6.73306 15.4541C5.59006 15.4541 4.70106 16.3481 4.70106 17.4541C4.70106 17.4121 4.70106 17.4121 4.70106 17.4541V17.4551ZM45.8231 8.98614H50.2701L54.4201 20.0071H54.4621L58.5281 8.98614H63.0181V24.5181H60.2221V12.0501H60.1801L55.3521 24.5181H53.3621L48.5761 12.0501H48.5331V24.5181H45.8231V8.98614ZM70.7671 8.98614H81.3131V11.4121H73.6051V15.3691H80.9311V17.6671H73.6051V22.0501H81.7361V24.5181H70.7671V8.98614ZM93.8481 15.7091C94.2721 15.7091 94.6531 15.6671 95.0771 15.6241C95.4571 15.5821 95.7971 15.4541 96.1771 15.3271C96.5171 15.1571 96.7711 14.9011 96.9821 14.6461C97.1941 14.3481 97.3221 13.9651 97.3221 13.4961C97.3221 13.0711 97.2371 12.7311 97.0251 12.4761C96.8131 12.2201 96.6011 11.9651 96.3051 11.8371C95.9661 11.6671 95.6691 11.5391 95.2881 11.5391C94.9091 11.4861 94.5271 11.4581 94.1451 11.4541H91.5601V15.8371C91.5601 15.7091 93.8481 15.7091 93.8481 15.7091ZM88.7241 8.98614H94.2721C94.9921 8.98614 95.7541 9.07114 96.4741 9.19914C97.1521 9.32614 97.787 9.62414 98.3381 9.96514C98.8881 10.3051 99.3541 10.8151 99.6511 11.3691C99.9891 11.9651 100.159 12.6461 100.159 13.4541C100.159 14.5611 99.8191 15.4971 99.1851 16.2201C98.549 16.9441 97.66 17.4121 96.5161 17.6671L100.752 24.5611H97.3641L93.6791 17.9651H91.604V24.5611H88.7661V8.98614H88.7241ZM118.581 12.6461C118.166 12.0971 117.61 11.6711 116.972 11.4121C116.339 11.1581 115.663 11.0281 114.981 11.0291C114.212 11.0221 113.45 11.1661 112.737 11.4541C112.102 11.7521 111.509 12.1351 111 12.6881C110.495 13.1941 110.105 13.8041 109.857 14.4751C109.603 15.1991 109.433 15.9651 109.476 16.6881C109.476 17.5391 109.603 18.3051 109.857 18.9861C110.111 19.6661 110.492 20.3061 110.958 20.8161C111.424 21.3261 111.974 21.7091 112.652 22.0071C113.287 22.3051 114.05 22.4331 114.854 22.4331C115.701 22.4331 116.464 22.2631 117.141 21.9231C117.775 21.6181 118.327 21.1651 118.751 20.6031L121.038 22.1781C120.345 23.0371 119.46 23.7221 118.454 24.1781C117.438 24.6461 116.252 24.9011 114.854 24.9011C113.626 24.9011 112.44 24.6881 111.424 24.3051C110.424 23.9271 109.504 23.3641 108.713 22.6451C107.951 21.8801 107.358 21.0291 106.977 20.0501C106.554 19.0291 106.342 17.9221 106.342 16.7301C106.342 15.4971 106.554 14.3481 106.977 13.3691C107.38 12.3891 108.003 11.5161 108.798 10.8161C109.586 10.1041 110.508 9.55414 111.509 9.19914C113.107 8.61414 114.832 8.46714 116.506 8.77314C117.057 8.85814 117.607 8.98614 118.115 9.19914C118.624 9.41214 119.089 9.62414 119.555 9.92214C119.979 10.2201 120.402 10.5611 120.699 10.9441C120.741 10.9861 118.581 12.6461 118.581 12.6461ZM139.672 18.8161C139.672 19.7521 139.502 20.6031 139.164 21.3691C138.867 22.1041 138.403 22.7601 137.808 23.2841C137.205 23.8081 136.518 24.2251 135.775 24.5181C134.971 24.8161 134.081 24.9431 133.234 24.9431C132.387 24.9431 131.498 24.8161 130.693 24.5181C129.939 24.2481 129.248 23.8281 128.661 23.2841C128.068 22.7311 127.644 22.0921 127.305 21.3691C126.967 20.6031 126.84 19.7941 126.84 18.8161V8.98614H129.677V18.6881C129.677 19.1561 129.719 19.5821 129.846 20.0501C129.973 20.4751 130.185 20.9001 130.439 21.2411C130.693 21.5811 131.075 21.8801 131.54 22.0921C131.964 22.3051 132.557 22.3901 133.234 22.3901C133.812 22.3931 134.386 22.2921 134.928 22.0921C135.346 21.8821 135.721 21.5931 136.03 21.2421C136.294 20.8811 136.494 20.4781 136.623 20.0501C136.75 19.6241 136.792 19.1561 136.792 18.6881V8.98614H139.629C139.672 8.98614 139.672 18.8161 139.672 18.8161ZM152.419 15.7091C152.843 15.7091 153.224 15.6671 153.647 15.6241C154.071 15.5821 154.41 15.4541 154.749 15.3271C155.087 15.1571 155.341 14.9011 155.553 14.6461C155.765 14.3481 155.892 13.9651 155.892 13.4961C155.892 13.0711 155.807 12.7311 155.596 12.4761C155.426 12.2201 155.172 11.9651 154.876 11.8371C154.537 11.6671 154.24 11.5391 153.859 11.5391C153.48 11.4861 153.098 11.4581 152.716 11.4541H150.132V15.8371C150.09 15.7091 152.419 15.7091 152.419 15.7091ZM147.253 8.98614H152.8C153.52 8.98614 154.283 9.07114 155.003 9.19914C155.68 9.32614 156.316 9.62414 156.866 9.96514C157.417 10.3051 157.84 10.7731 158.179 11.3691C158.518 11.9651 158.687 12.6461 158.687 13.4541C158.687 14.5611 158.348 15.4971 157.713 16.2201C157.078 16.9441 156.188 17.4121 155.045 17.6671L159.28 24.5611H155.892L152.208 17.9651H150.132V24.5611H147.295C147.253 24.5181 147.253 8.98614 147.253 8.98614ZM169.36 17.7951L163.388 9.02914H166.861L170.842 15.5391L174.907 9.02914H178.211L172.239 17.7941V24.5181H169.402V17.7931H169.36V17.7951Z" fill="#1F19E1"/>
</g>
<defs>
<clipPath id="clip0_2_1612">
<rect width="179" height="33" fill="white" transform="translate(0 0.453125)"/>
</clipPath>
</defs>
</svg>
