<svg width="119" height="119" viewBox="0 0 119 119" fill="none" xmlns="http://www.w3.org/2000/svg">
<g clip-path="url(#clip0_2_1678)">
<path d="M0.5 4.17187C0.5 1.96273 2.29086 0.171875 4.5 0.171875H114.5C116.709 0.171875 118.5 1.96274 118.5 4.17188V114.172C118.5 116.381 116.709 118.172 114.5 118.172H4.5C2.29086 118.172 0.5 116.381 0.5 114.172V4.17187Z" fill="#121212"/>
<path d="M1 4.17187C1 2.23888 2.567 0.671875 4.5 0.671875H114.5C116.433 0.671875 118 2.23888 118 4.17188V114.172C118 116.105 116.433 117.672 114.5 117.672H4.5C2.567 117.672 1 116.105 1 114.172V4.17187Z" stroke="#242424"/>
<g clip-path="url(#clip1_2_1678)">
<g clip-path="url(#clip2_2_1678)">
<path fill-rule="evenodd" clip-rule="evenodd" d="M47.5 40.1719C47.5 39.9067 47.6054 39.6523 47.7929 39.4648C47.9804 39.2772 48.2348 39.1719 48.5 39.1719H70.5C70.7652 39.1719 71.0196 39.2772 71.2071 39.4648C71.3946 39.6523 71.5 39.9067 71.5 40.1719V55.1719H78.5C78.7652 55.1719 79.0196 55.2772 79.2071 55.4648C79.3946 55.6523 79.5 55.9067 79.5 56.1719V78.1719C79.5 78.4371 79.3946 78.6914 79.2071 78.879C79.0196 79.0665 78.7652 79.1719 78.5 79.1719H40.5C40.2348 79.1719 39.9804 79.0665 39.7929 78.879C39.6054 78.6914 39.5 78.4371 39.5 78.1719V56.1719C39.5 55.9067 39.6054 55.6523 39.7929 55.4648C39.9804 55.2772 40.2348 55.1719 40.5 55.1719H47.5V40.1719ZM56.5 55.1719H62.5C62.7652 55.1719 63.0196 55.0665 63.2071 54.879C63.3946 54.6914 63.5 54.4371 63.5 54.1719V48.1719C63.5 47.9067 63.3946 47.6523 63.2071 47.4648C63.0196 47.2772 62.7652 47.1719 62.5 47.1719H56.5C56.2348 47.1719 55.9804 47.2772 55.7929 47.4648C55.6054 47.6523 55.5 47.9067 55.5 48.1719V54.1719C55.5 54.4371 55.6054 54.6914 55.7929 54.879C55.9804 55.0665 56.2348 55.1719 56.5 55.1719ZM47.5 65.1719C47.5 64.9067 47.6054 64.6523 47.7929 64.4648C47.9804 64.2772 48.2348 64.1719 48.5 64.1719H70.5C70.7652 64.1719 71.0196 64.2772 71.2071 64.4648C71.3946 64.6523 71.5 64.9067 71.5 65.1719V71.1719C71.5 71.4371 71.3946 71.6914 71.2071 71.879C71.0196 72.0665 70.7652 72.1719 70.5 72.1719H48.5C48.2348 72.1719 47.9804 72.0665 47.7929 71.879C47.6054 71.6914 47.5 71.4371 47.5 71.1719V65.1719Z" fill="#F0F0F0"/>
</g>
</g>
</g>
<defs>
<clipPath id="clip0_2_1678">
<path d="M0.5 4.17187C0.5 1.96273 2.29086 0.171875 4.5 0.171875H114.5C116.709 0.171875 118.5 1.96274 118.5 4.17188V114.172C118.5 116.381 116.709 118.172 114.5 118.172H4.5C2.29086 118.172 0.5 116.381 0.5 114.172V4.17187Z" fill="white"/>
</clipPath>
<clipPath id="clip1_2_1678">
<rect width="40" height="40" fill="white" transform="translate(39.5 39.1719)"/>
</clipPath>
<clipPath id="clip2_2_1678">
<rect width="40" height="40" fill="white" transform="translate(39.5 39.1719)"/>
</clipPath>
</defs>
</svg>
